<svg width="24" height="24" viewBox="0 0 24 24" fill="none" xmlns="http://www.w3.org/2000/svg">
<path d="M12.0001 2C8.00613 2 4.75684 5.2493 4.75684 9.2432C4.75684 14.1998 11.2388 21.4763 11.5148 21.7836C11.774 22.0723 12.2266 22.0718 12.4854 21.7836C12.7613 21.4763 19.2433 14.1998 19.2433 9.2432C19.2432 5.2493 15.994 2 12.0001 2ZM12.0001 12.8875C9.99062 12.8875 8.35586 11.2527 8.35586 9.2432C8.35586 7.23375 9.99066 5.59898 12.0001 5.59898C14.0095 5.59898 15.6443 7.23379 15.6443 9.24324C15.6443 11.2527 14.0095 12.8875 12.0001 12.8875Z" fill="black"/>
</svg>
