<svg width="564" height="525" viewBox="0 0 564 525" fill="none" xmlns="http://www.w3.org/2000/svg">
<g clip-path="url(#clip0_121_5463)">
<g style="mix-blend-mode:multiply">
<path d="M287.48 416.045C295.165 422.39 285.298 434.334 277.613 427.989C269.927 421.644 279.794 409.7 287.48 416.045Z" fill="#BEE2C9"/>
</g>
<g style="mix-blend-mode:multiply">
<path d="M127.753 443.629C144.231 457.291 123.109 482.956 106.567 469.313C90.0882 455.651 111.211 429.986 127.753 443.629Z" fill="#BEE2C9"/>
</g>
<g style="mix-blend-mode:multiply">
<path d="M338.406 354.431C359.929 372.209 332.315 405.743 310.773 387.902C289.249 370.123 316.864 336.589 338.406 354.431Z" fill="#BEE2C9"/>
</g>
<g style="mix-blend-mode:multiply">
<path d="M383.747 133.885C393.148 141.638 381.072 156.286 371.653 148.47C362.234 140.654 374.328 126.069 383.747 133.885Z" fill="#BEE2C9"/>
</g>
<g style="mix-blend-mode:multiply">
<path d="M230.085 299.108C251.608 316.887 223.994 350.421 202.452 332.579C180.91 314.738 208.543 281.267 230.085 299.108Z" fill="#BEE2C9"/>
</g>
<g style="mix-blend-mode:multiply">
<path d="M231.624 174.474C234.738 171.365 237.915 168.238 241.029 165.129C243.048 162.48 245.543 160.512 248.53 159.287C251.18 157.615 254.116 156.679 257.338 156.479C260.504 156.09 263.604 156.404 266.488 157.604C269.7 158.295 272.514 159.721 275.01 161.923C276.511 163.531 277.93 165.095 279.431 166.703C281.841 170.231 283.245 174.056 283.68 178.304C283.609 180.376 283.538 182.449 283.449 184.459C282.741 188.771 280.993 192.57 278.242 195.982C275.773 199.653 273.303 203.323 270.834 206.994C268.725 209.805 266.043 211.829 262.885 213.173C260.065 214.964 257.004 215.937 253.637 216.111C250.283 216.556 247.019 216.153 243.991 214.928C240.635 214.21 237.658 212.696 235.062 210.387C233.542 208.716 231.96 207.063 230.441 205.392C227.913 201.695 226.372 197.637 225.943 193.181L226.145 186.693C226.922 182.155 228.74 178.13 231.661 174.6L231.624 174.474Z" fill="#BEE2C9"/>
</g>
<g style="mix-blend-mode:multiply">
<path d="M163.604 172.48C187.568 192.272 156.818 229.537 132.835 209.681C108.871 189.889 139.621 152.624 163.604 172.48Z" fill="#BEE2C9"/>
</g>
<g style="mix-blend-mode:multiply">
<path d="M113.867 315.476C141.08 337.933 106.153 380.261 78.9218 357.741C51.6907 335.222 86.6358 292.956 113.867 315.476Z" fill="#BEE2C9"/>
</g>
<g style="mix-blend-mode:multiply">
<path d="M40.5926 217.662C56.9527 231.154 35.9814 256.637 19.6027 243.083C3.24255 229.591 24.2139 204.107 40.5926 217.662Z" fill="#BEE2C9"/>
</g>
<g style="mix-blend-mode:multiply">
<path d="M120.292 79.8299C122.207 81.4522 119.74 84.4381 117.762 82.8343C115.785 81.2306 118.314 78.2261 120.292 79.8299Z" fill="#BEE2C9"/>
</g>
<g style="mix-blend-mode:multiply">
<path d="M236.55 22.0874C239.872 25.0034 243.176 27.8564 246.499 30.7723C248.095 32.0102 249.289 33.5038 250.035 35.3349C251.058 36.9472 251.66 38.7525 251.759 40.7064C251.984 42.6232 251.795 44.5256 251.091 46.3066C250.712 48.2648 249.783 49.9758 248.446 51.4651C247.482 52.3656 246.517 53.2661 245.553 54.1666C243.45 55.6088 241.117 56.5035 238.517 56.7251C237.274 56.6822 236.031 56.6393 234.788 56.5964C232.19 56.1332 229.839 55.1184 227.762 53.4074C224.288 50.673 220.832 48.0015 217.358 45.2671C215.68 43.9849 214.468 42.4284 213.722 40.5974C212.68 38.9221 212.078 37.1168 211.96 35.1C211.717 33.1204 211.907 31.2179 212.673 29.4183C213.114 27.4415 213.963 25.6863 215.344 24.1154C216.308 23.215 217.335 22.2959 218.299 21.3954C220.447 19.8717 222.861 19.0213 225.506 18.7183C226.812 18.7426 228.055 18.7855 229.361 18.8098C232.021 19.2544 234.39 20.3321 236.468 22.0431L236.55 22.0874Z" fill="#BEE2C9"/>
</g>
<g style="mix-blend-mode:multiply">
<path d="M379.871 34.9811C397.057 49.1863 375.007 75.8778 357.821 61.6727C340.635 47.4675 362.685 20.776 379.871 34.9811Z" fill="#BEE2C9"/>
</g>
<g style="mix-blend-mode:multiply">
<path d="M531.567 141.415C550.205 156.832 526.294 185.783 507.656 170.366C489.018 154.949 512.929 125.997 531.567 141.415Z" fill="#BEE2C9"/>
</g>
<g style="mix-blend-mode:multiply">
<path d="M506.704 210.693C509.964 213.628 513.287 216.543 516.546 219.478C518.487 220.956 519.936 222.853 520.876 225.105C522.136 227.058 522.85 229.241 522.953 231.672C523.245 234.048 523.023 236.302 522.161 238.471C521.687 240.8 520.617 242.962 518.959 244.752C517.78 245.853 516.602 246.953 515.423 248.054C512.81 249.852 509.975 250.895 506.79 251.221C505.277 251.19 503.745 251.095 502.232 251.064C499.057 250.498 496.218 249.217 493.695 247.159L483.185 239.118C481.163 237.596 479.695 235.636 478.755 233.384C477.476 231.368 476.744 229.123 476.622 226.629C476.311 224.19 476.578 221.855 477.485 219.603C478.003 217.193 479.072 215.031 480.756 213.097C481.998 211.978 483.176 210.877 484.418 209.758C487.075 207.878 490.036 206.798 493.24 206.535C494.834 206.611 496.41 206.624 497.942 206.718C501.243 207.247 504.163 208.572 506.704 210.693Z" fill="#BEE2C9"/>
</g>
<g style="mix-blend-mode:multiply">
<path d="M570.697 280.504C586.25 293.345 566.32 317.496 550.767 304.654C535.214 291.813 555.144 267.662 570.697 280.504Z" fill="#BEE2C9"/>
</g>
<g style="mix-blend-mode:multiply">
<path d="M487.501 360.49C507.047 376.665 481.943 407.131 462.316 390.912C442.689 374.693 467.874 344.271 487.501 360.49Z" fill="#BEE2C9"/>
</g>
<g style="mix-blend-mode:multiply">
<path d="M374.33 515.052L365.914 525.199C364.98 526.432 363.808 527.326 362.418 527.942C361.147 528.728 359.845 529.181 358.288 529.231C356.768 529.407 355.362 529.275 354.033 528.711C352.571 528.391 351.205 527.7 350.079 526.665C347.927 524.703 346.192 522.07 346.047 519.035C345.92 516.064 346.622 513.121 348.591 510.761L357.007 500.614C357.941 499.38 359.112 498.487 360.502 497.871C361.774 497.085 363.075 496.632 364.632 496.582C366.153 496.406 367.559 496.538 368.888 497.102C370.349 497.422 371.715 498.113 372.842 499.148C374.994 501.11 376.729 503.743 376.874 506.778C377 509.749 376.298 512.692 374.33 515.052Z" fill="#BEE2C9"/>
</g>
<g style="mix-blend-mode:multiply">
<path d="M-14.6515 263.875C-3.15456 273.402 -17.9111 291.236 -29.408 281.709C-40.905 272.182 -26.1485 254.348 -14.6515 263.875Z" fill="#BEE2C9"/>
</g>
<g style="mix-blend-mode:multiply">
<path d="M253.557 1.46897C268.766 14.0703 249.227 37.6945 234.019 25.0932C218.81 12.4918 238.349 -11.1324 253.557 1.46897Z" fill="#BEE2C9"/>
</g>
<g style="mix-blend-mode:multiply">
<path d="M346.256 13.5271C358.561 23.7043 342.763 42.8717 330.44 32.6317C318.117 22.3917 333.933 3.28706 346.256 13.5271Z" fill="#BEE2C9"/>
</g>
<g style="mix-blend-mode:multiply">
<path d="M402.9 89.9973C418.734 103.098 398.413 127.774 382.497 114.629C366.581 101.485 386.984 76.8528 402.9 89.9973Z" fill="#BEE2C9"/>
</g>
<g style="mix-blend-mode:multiply">
<path d="M327.642 181.106C344.002 194.598 323.031 220.082 306.652 206.527C290.273 192.972 311.263 167.551 327.642 181.106Z" fill="#BEE2C9"/>
</g>
<g style="mix-blend-mode:multiply">
<path d="M341.383 164.462C353.042 174.078 338.109 192.237 326.43 182.559C314.752 172.881 329.704 154.784 341.383 164.462Z" fill="#BEE2C9"/>
</g>
<g style="mix-blend-mode:multiply">
<path d="M409.961 164.298C425.796 177.398 405.474 202.074 389.559 188.929C373.724 175.829 394.046 151.153 409.961 164.298Z" fill="#BEE2C9"/>
</g>
<g style="mix-blend-mode:multiply">
<path d="M469.941 215.981C484.16 227.78 465.895 249.933 451.676 238.134C437.457 226.334 455.721 204.181 469.941 215.981Z" fill="#BEE2C9"/>
</g>
<g style="mix-blend-mode:multiply">
<path d="M410.809 266.831C427.288 280.493 406.165 306.159 389.623 292.515C373.082 278.872 394.267 253.188 410.809 266.831Z" fill="#BEE2C9"/>
</g>
<g style="mix-blend-mode:multiply">
<path d="M426.087 227.643C442.91 241.546 421.333 267.755 404.491 253.79C387.668 239.888 409.245 213.678 426.087 227.643Z" fill="#BEE2C9"/>
</g>
</g>
<defs>
<clipPath id="clip0_121_5463">
<rect width="564" height="525" fill="white"/>
</clipPath>
</defs>
</svg>
