<svg width="1920" height="1630" viewBox="0 0 1920 1630" fill="none" xmlns="http://www.w3.org/2000/svg">
<g clip-path="url(#clip0_120_4571)">
<rect width="1920" height="1630" fill="#EFE6DD"/>
<path d="M487.472 1144C486.251 1140.99 484.492 1139.78 482.074 1141.03C479.333 1142.44 475.619 1143.02 477.217 1148.68L487.415 1144.02L487.472 1144Z" fill="#D3AA62"/>
<path d="M255.154 1155.13C253.936 1152.14 254.277 1148.79 252.009 1146C251.159 1144.95 252.536 1143.09 253.342 1142.03C256.106 1138.56 257.761 1134 261.326 1131.4C259.898 1128.1 257.345 1128.2 255.059 1128.15C252.659 1128.14 252.527 1130.49 251.812 1132.52C249.37 1139.51 245.277 1144.58 238.258 1145.62C237.071 1145.98 235.885 1146.35 234.99 1147.31C234.529 1150.88 232.167 1149.49 230.178 1148.98C228.085 1148.75 226.009 1148.58 224.364 1150.14C219.405 1154.98 212.935 1155.35 206.546 1156.01C204.155 1156.24 202.032 1156.77 200.582 1159.03C199.591 1160.52 198.147 1161.28 196.516 1161.59C189.07 1163.07 181.852 1165.36 173.846 1165.08C166.841 1164.87 159.848 1166.65 154.308 1171.6C152.05 1173.6 149.703 1175.51 146.74 1176.11C146.102 1176.24 145.383 1176.53 144.972 1177.03C140.475 1182.41 133.788 1183.09 127.943 1185.45C125.183 1186.55 122.617 1188.34 120.529 1190.3C116.118 1194.46 110.367 1194.98 105.088 1196.74C101.503 1197.96 98.5095 1199.76 96.2054 1202.9C93.9981 1205.95 91.3916 1207.38 87.407 1206.55C82.5739 1205.54 78.3917 1206.83 74.9745 1210.81C72.75 1213.37 69.586 1214.78 66.7782 1216.58C65.1565 1217.58 63.348 1218.14 62.8121 1220.8C60.8056 1219.36 59.5646 1216.93 57.4324 1217.21C55.3567 1217.48 54.5451 1219.6 53.1014 1220.79C49.3433 1224.01 46.0305 1227.71 40.0508 1227C36.1074 1226.53 32.3877 1228.79 30.7003 1233.24C29.5916 1236.27 27.4706 1238.11 25.5766 1240.31C19.5402 1247.41 11.056 1250.65 4.42776 1256.74C3.11341 1257.96 1.43243 1257.67 -0.281102 1257.26C-2.74651 1256.58 -4.61833 1257.78 -4.65321 1260.48C-4.68452 1264.92 -6.89364 1267.09 -9.70136 1268.89C-11.2666 1269.87 -11.7966 1271.47 -11.4367 1273.61C-11.1754 1274.96 -10.4381 1276.04 -9.07221 1276.31C-8.48219 1276.44 -7.97355 1276.28 -7.6028 1275.86L-5.45608 1274.76C0.765657 1271.35 7.87214 1269.97 13.3393 1264.98C14.6537 1263.76 16.0399 1262.15 18.3032 1262.76C25.1783 1258.84 31.2988 1253.33 38.7015 1250.62C50.0114 1246.51 60.2662 1239.98 71.9658 1236.82C75.2198 1235.94 78.3752 1234.28 81.1983 1232.1C85.5378 1228.77 91.0705 1228.13 95.9128 1225.7C100.279 1223.54 104.167 1220.79 108.217 1218.17C113.817 1214.51 120.235 1212.22 126.402 1209.7L144.242 1202.83C147.817 1201.35 152.22 1201.06 156.193 1200.33C165.149 1198.76 173.522 1196.43 181.673 1192.24C187.508 1189.19 193.95 1186.77 200.53 1185.06C205.456 1183.79 210.89 1182.37 214.58 1177.61C215.894 1175.96 218.591 1175.5 220.82 1175.13C226.102 1174.25 229.948 1170.7 234.208 1167.95C238.355 1165.24 242.364 1162.26 246.876 1160.18C248.986 1157.22 252.427 1156.79 255.211 1155.12L255.154 1155.13Z" fill="#D3AA62"/>
<path d="M287.374 1168.1C287.33 1166.42 286.511 1165.92 285.829 1165.25C283.898 1163.21 285.086 1161.96 286.535 1162.08C289.435 1162.31 291.269 1160.74 293.136 1158.84C294.671 1157.3 296.745 1158.1 298.689 1158.45C299.596 1158.6 300.413 1158.23 300.257 1157.02C300.133 1155.93 299.291 1156 298.603 1155.96C294.999 1155.63 291.445 1155.48 287.956 1155.99C285.196 1156.47 283.459 1158.38 282.291 1161.01C281.452 1162.83 281.068 1164.96 282.311 1166.96C283.676 1169.18 285.545 1168.6 287.39 1168.15L287.374 1168.1Z" fill="#D3AA62"/>
<path d="M457.571 1109.45C462.211 1111.27 464.43 1108.46 466.967 1106.54C468.486 1105.38 469.826 1104.03 471.24 1102.72C471.934 1102.12 473.05 1101.72 472.384 1100.23C471.782 1098.97 470.609 1098.96 469.776 1099.28C464.876 1101.11 460.553 1103.89 457.554 1109.39L457.571 1109.45Z" fill="#D3AA62"/>
<path d="M337.64 1142.51C339.349 1141.8 341.723 1141.69 340.615 1139.08C339.679 1136.85 337.41 1137.12 335.726 1137.7C333.758 1138.37 332.28 1140.34 333.435 1142.68C334.989 1145.79 336.327 1142.23 337.64 1142.51Z" fill="#D3AA62"/>
<path d="M462.342 1119.2C466.424 1120.58 468.148 1116.66 470.824 1115.01C471.454 1114.63 471.305 1113.23 470.091 1112.86C468.528 1112.34 462.654 1117.04 462.342 1119.2Z" fill="#D3AA62"/>
<path d="M463.954 1136.14C464.478 1138 465.381 1138.79 466.575 1138.42C467.825 1138.04 468.603 1136.85 468.088 1135.24C467.474 1133.29 465.833 1133.17 464.607 1133.42C463.007 1133.66 464.042 1135.36 463.954 1136.14Z" fill="#D3AA62"/>
<path d="M485.452 1131.47C486.068 1131.02 486.74 1130.56 486.308 1129.69C485.795 1128.53 484.944 1128.79 484.256 1129.19C483.681 1129.56 483.244 1130.2 483.659 1131.01C484.164 1131.93 484.796 1131.54 485.379 1131.43L485.452 1131.47Z" fill="#D3AA62"/>
<path d="M296.507 1168.14C297.099 1168.27 297.52 1168.46 297.86 1168.35C298.37 1168.19 298.872 1167.79 298.344 1167.01C298.222 1166.79 297.549 1166.81 297.226 1166.98C296.942 1167.06 296.846 1167.6 296.507 1168.14Z" fill="#D3AA62"/>
<path d="M162.499 1270.22L157.955 1272.18C156.215 1274.27 153.931 1275.54 151.494 1276.47C144.005 1279.53 136.288 1282.21 129.099 1286.11C127.921 1286.72 126.695 1287.16 125.393 1286.69C117.991 1288.97 111.49 1293.33 104.599 1296.76C101.524 1298.27 98.3602 1299.25 95.1856 1299.1C89.3046 1298.73 84.4804 1301.65 79.3556 1303.72C70.5264 1307.25 62.6382 1312.79 53.7687 1316.4C44.9959 1319.91 35.9457 1322.01 27.1155 1325.1C26.2115 1325.38 25.089 1325.54 24.2645 1325.23C20.6026 1323.8 18.3365 1325.56 16.4849 1328.56C12.2131 1332.99 8.04673 1329.78 4.20672 1328.16C2.04827 1327.27 0.48921 1327.18 -1.50384 1328.17C-5.05418 1329.95 -9.56098 1330.09 -10.9312 1335.44C-11.4841 1337.6 -18.9481 1337.28 -20.7693 1335.41C-24.1044 1331.89 -28.6112 1332.03 -31.8745 1335.9C-32.8333 1337.07 -33.7279 1338.03 -35.4163 1337.92C-41.1277 1337.5 -46.0812 1340.4 -51.3122 1341.88C-52.1598 1342.14 -52.9346 1342.44 -53.3532 1343.13C-55.6713 1347.09 -59.5873 1347.79 -63.5436 1348.57C-69.2438 1349.71 -71.9909 1353.23 -70.8347 1357.74C-70.7533 1358.02 -70.5667 1358.46 -70.6874 1358.69C-73.8504 1364.21 -73.8332 1364.71 -69.1625 1369.69C-68.4663 1370.41 -68.7403 1370.74 -69.2805 1371.22C-72.6785 1372.45 -75.8333 1374.11 -78.7449 1376.19C-80.2773 1377.28 -81.1145 1378.66 -80.5536 1380.42C-80.0654 1382.14 -78.4738 1382.34 -76.9636 1382.25C-74.3146 1382.06 -71.7624 1381.96 -69.4892 1383.69C-68.7126 1384.26 -67.5088 1384.39 -66.6536 1383.94C-61.9578 1381.43 -56.3824 1382.46 -51.72 1379.4C-49.3323 1377.86 -46.1346 1377.43 -43.1851 1378.08C-41.4719 1378.49 -39.8965 1378.63 -38.7366 1377.09C-37.5364 1375.47 -38.2017 1374 -39.0529 1372.51C-39.6771 1371.4 -40.2611 1370.2 -40.4658 1368.83C-37.1312 1368.24 -34.1482 1369.44 -31.1105 1369.76C-28.1859 1370.1 -25.3091 1370.71 -22.002 1368.51C-22.893 1371.22 -23.3329 1373.35 -21.73 1375.1C-20.3943 1376.56 -18.4474 1376.7 -16.7111 1376.54C-13.5939 1376.27 -10.7994 1376.16 -7.64547 1374.07C-5.27405 1372.46 -2.16806 1370.63 0.972251 1369.79C3.3215 1369.19 4.78973 1368.31 4.79117 1365.06C4.7692 1358.28 10.2783 1354.53 16.293 1357.1C20.4078 1358.82 23.7203 1359.24 27.2508 1355.66C32.5628 1350.35 39.6218 1350.11 45.9652 1351.46C50.8702 1352.5 53.3049 1350.26 56.0376 1347.55C57.3756 1346.2 58.8344 1344.63 59.6305 1342.89C63.3848 1334.25 72.2091 1332.22 78.8388 1327.44C80.8712 1325.94 83.421 1328.65 85.9398 1328C86.3918 1327.86 86.8276 1327.66 87.1743 1327.37C88.3 1324.84 89.3126 1322.35 92.6233 1321.89C94.9246 1321.56 95.5494 1319 96.8224 1317.42C99.9804 1313.39 103.808 1313.03 108.237 1314.34C111.672 1315.4 114.677 1315.6 116.996 1311.65C118.275 1309.45 121.019 1308.29 123.286 1306.97C124.448 1306.3 125.626 1305.69 126.237 1304.38C127.853 1300.76 130.161 1299.8 133.744 1301.82C135.636 1302.86 137.386 1301.45 139.047 1300.37C142.371 1298.23 144.933 1295.13 148.313 1292.97C151.177 1291.16 153.961 1289.92 157.15 1289.25C158.313 1289.02 159.774 1288.76 160.022 1287.68C161.385 1282.53 166.59 1280.3 168.584 1275.64C169.508 1273.48 171.394 1271.47 169.475 1269.26C167.556 1267.04 165.614 1269.07 163.79 1270.01C163.355 1270.21 162.83 1270.3 162.345 1270.33L162.499 1270.22Z" fill="#D3AA62"/>
<path d="M316.425 1200.57C310.883 1200.96 305.992 1203.66 301.263 1206.05C297.138 1208.19 292.001 1208.71 288.721 1212.97C289.242 1214.81 293.015 1214.89 291.405 1217.89C290.214 1220.19 288.153 1219.64 286.23 1219.79C284.962 1219.87 283.185 1220.11 282.556 1220.92C279.148 1225.59 274.118 1227.58 269.454 1230.2C265.934 1227.98 262.982 1230.14 259.696 1231.34C252.784 1233.84 246.523 1237.77 239.766 1240.6C239.249 1240.95 238.458 1241.19 238.265 1241.81C236.972 1245.7 234.243 1246.48 230.622 1245.85C229.256 1245.59 227.689 1245.69 226.283 1245.94C223.545 1246.47 222.944 1244.78 222.488 1242.74C217.165 1243.69 213.02 1247.72 207.787 1248.77C207 1251.19 208.4 1252.45 210.372 1252.46C213.515 1252.49 215.579 1254.36 217.473 1256.27C220.153 1259 223.074 1260.85 226.105 1261.35C221.011 1259.42 221.255 1260.28 215.377 1262.09C209.385 1263.94 204.528 1267.18 199.533 1270.6C198.404 1271.38 197.112 1271.59 195.778 1271.44C192.424 1271.1 189.266 1271.45 186.442 1273.63C185.789 1274.14 184.99 1274.58 184.174 1274.52C177.701 1274.01 175.804 1279.03 174.279 1283.62C172.231 1289.62 165.661 1293.33 159.952 1290.97C153.822 1288.42 149.664 1289.58 146.322 1294.92C145.009 1297.01 145.409 1299.07 147.012 1300.82C147.976 1301.83 149.35 1302.35 150.513 1301.68C154.354 1299.62 157.597 1300.87 160.809 1302.87C164.001 1303.51 166.689 1301.94 169.279 1300.45C171.071 1299.4 172.718 1298.71 174.667 1299.73C180.591 1300.46 184.968 1295.31 190.162 1294.77C197.149 1294.05 201.331 1288.2 207.347 1286.66C216.295 1284.41 225.243 1282.58 233.914 1279.35C238.411 1277.65 242.577 1275.87 245.59 1271.76C247.677 1268.93 251.06 1267.64 253.965 1265.75L255.183 1265.06C256.224 1264.18 257.386 1263.51 258.777 1264.08C259.893 1264.54 261.259 1264.81 262.073 1264C265.831 1260.34 270.44 1262.29 274.567 1261.46C280.326 1260.31 286.337 1260.27 291.54 1256.29C295.284 1253.45 299.661 1252.42 304.857 1252.75C309.923 1253.06 316.023 1252.68 319.891 1247.68C320.737 1246.55 321.617 1246.4 322.789 1246.41C324.405 1246.48 325.785 1245.93 326.372 1244.31C327.529 1241.02 329.96 1240.71 332.957 1240.22C340 1239.05 347.271 1238.68 353.767 1234.94C356.036 1230.37 360.009 1232.89 363.304 1232.37C364.953 1228.87 362.049 1227.08 360.167 1227.16C355.602 1227.32 352.106 1224.52 347.927 1223.88C346.634 1223.65 345.397 1223.41 344.187 1224.34C342.937 1225.35 341.556 1225.9 340.181 1224.95C339.331 1224.34 339.491 1223.17 339.901 1222.23C340.56 1220.65 341.576 1219.47 343.336 1219.17C344.217 1219.03 344.856 1219.33 345.648 1219.52C350.547 1220.76 353.297 1218.1 353.002 1212.51C352.393 1211.02 352.487 1209.61 353.762 1208.47C355.286 1207.13 355.968 1208.67 356.979 1209.42C359.455 1211.21 361.498 1210.4 363.263 1208.17C365.987 1204.77 365.792 1200.4 362.948 1196.66C361.082 1196.79 359.224 1196.74 357.664 1196.66C359.141 1196.02 361.529 1198.15 362.8 1195.27C362.677 1194.18 362.263 1193.37 361.099 1193.17C358.635 1193.37 357.435 1191.3 355.849 1190.04C355.284 1190.22 354.863 1190.03 354.587 1189.49C349.907 1188.38 348.123 1189.24 347.334 1194.48C346.783 1197.95 344.627 1198.37 342.203 1198.49C338.98 1198.61 340.339 1195.82 340.061 1193.97C337.799 1194.23 335.537 1194.49 333.332 1194.73C330.128 1196.22 331.82 1198.07 332.939 1199.85C334.074 1201.68 334.295 1203.11 331.426 1202.75C320.725 1201.43 312.229 1207.23 303.432 1212.18C302.746 1212.58 302.109 1213.15 301.042 1212.86C306.53 1209.67 312.018 1206.92 317.913 1205.16C318.535 1204.97 317.727 1205.16 318.365 1205.02C320.893 1204.62 322.304 1202.87 323.447 1200.84C323.849 1200.09 323.371 1199.05 322.602 1198.72C320.241 1197.77 318.223 1198.89 316.376 1200.39L316.425 1200.57Z" fill="#D3AA62"/>
<path d="M360.767 1193.83L361.969 1196.77L362.23 1197.69C360.909 1199.97 362.999 1202.14 362.365 1204.46C361.884 1206.23 361.371 1208.33 359.351 1208.58C357.258 1208.78 357.795 1206.56 357.307 1205.27C356.892 1204.02 356.582 1202.49 355.062 1202.34C353.3 1202.19 353.231 1203.9 352.829 1205.09C352.339 1206.61 351.024 1207.4 349.943 1208.35C348.765 1209.4 346.64 1209.93 347.226 1212C347.78 1213.96 349.808 1213.52 351.376 1213.85C352.547 1217.11 350.298 1220.24 346.96 1219.96C346.014 1219.88 345.164 1219.26 344.146 1219.58C342.281 1220.15 340.253 1220.59 340.412 1223.1C340.643 1225.66 342.229 1226.48 344.555 1225.57C347.107 1224.6 348.913 1226.42 351.007 1227.08C354.59 1228.23 358.901 1226.09 361.899 1229.72C362.345 1230.21 363.242 1230.12 363.726 1229.66C367.701 1225.25 372.544 1226.07 377.508 1226.66C381.008 1227.08 383.151 1223.8 381.843 1220.26C381.022 1218.02 379.522 1215.98 380.139 1213.16C383.04 1216.89 384.133 1222.06 388.713 1224.33C389.765 1225.01 390.824 1225.49 392.045 1225.68C392.53 1225.65 392.982 1225.51 393.459 1225.24C394.121 1224.97 394.783 1224.71 395.396 1224.27C396.654 1222.63 398.073 1221.13 399.938 1220.12C400.285 1219.82 400.616 1219.47 400.874 1219.08C401.298 1217.32 401.877 1215.9 404.132 1215.83C405.587 1215.75 406.983 1214.82 407.788 1213.32C408.425 1212.32 409.588 1212.08 410.419 1211.33C411.456 1208.69 413.799 1208.28 416.093 1207.7C416.723 1207.32 417.19 1206.8 417.553 1206.13C417.971 1205 417.871 1203.78 418.435 1202.73C419.377 1201.06 415.875 1199.77 418.014 1198.42C420.209 1197.06 422.745 1196.03 425.414 1196.77C426.74 1197.11 428.244 1197.64 428.92 1196.12C430.376 1192.8 432.785 1193.06 435.478 1193.66C436.456 1193.86 437.425 1193.37 438.329 1193.1C439.008 1192.89 439.63 1192.7 440.341 1192.6C446.012 1191.35 450.957 1194.7 456.429 1195.14C461.772 1195.55 467.366 1192.08 467.169 1186.39C466.973 1181.58 469.041 1181.06 472.654 1181.45C473.664 1181.33 474.309 1180.56 474.971 1179.86C475.711 1174.45 480.102 1175.4 483.592 1174.7C484.254 1174.44 484.9 1174.11 485.497 1173.62C486.809 1171.09 487.612 1168.28 491.296 1167.83C493.074 1167.59 493.861 1165.16 492.968 1163.31C491.572 1160.56 490.523 1157.51 486.328 1157.24C481.761 1156.96 478.365 1159.94 474.253 1160.84L472.42 1161.53C469.783 1164.59 465.352 1163.71 462.618 1166.42C458.617 1166.41 455.608 1169.02 452.16 1170.52C438.538 1176.47 424.451 1180.57 409.966 1183.47C397.435 1185.9 384.927 1187.32 372.164 1186.32C369.771 1186.12 366.771 1185.29 365.436 1188.83C364.51 1190.55 361.592 1190.02 361.451 1192.56L360.848 1193.68L360.767 1193.83Z" fill="#D3AA62"/>
<path d="M474.309 1179.39L471.55 1180.49C469.138 1181.73 468.06 1183.55 467.202 1186.37C465.662 1191.76 462.539 1196.33 456.397 1197.84C454.557 1198.28 452.669 1198.99 450.805 1199.56C446.11 1202.06 440.807 1203.07 436.056 1205.59C434.08 1206.63 431.852 1207 430.176 1208.89C427.526 1211.88 424.192 1212.47 420.515 1210.99C419.618 1210.64 418.705 1210.23 417.768 1209.96C414.317 1208.85 411.119 1208.4 409.699 1213.13C409.395 1214.22 408.395 1215.02 407.581 1215.83C406.713 1217.97 406.079 1219.84 402.978 1219.74C400.305 1219.62 397.838 1221.32 395.864 1223.23C394.953 1224.13 394.292 1224.83 393.015 1224.23L392.055 1224.52C388.3 1224.5 384.604 1225.76 380.874 1226.03C379.859 1226.78 378.68 1226.96 377.574 1227.17C374.563 1231.27 371.978 1227.15 369.143 1226.9C364.823 1226.61 363.853 1229.9 362.648 1233C359.049 1230.5 355.609 1230.5 352.459 1233.9C352.244 1235.52 353.127 1236.68 354.5 1236.75C357.375 1236.93 359.777 1239.11 362.305 1239.15C368.2 1239.14 374.226 1240.46 380.115 1237.84C386.384 1235.04 393.4 1234.44 399.351 1230.75C399.867 1230.4 399.173 1230.55 399.803 1230.61C407.637 1231.37 413.998 1226.31 421.254 1224.82C426.073 1223.84 429.204 1219.08 434.225 1218.16C435.573 1217.93 436.951 1216.51 438.372 1216.76C444.334 1217.85 449.949 1215.57 455.738 1214.97C458.781 1214.66 460.474 1213.26 461.284 1210.28C462.974 1203.91 467.327 1200.21 473.436 1198.58C477.891 1197.39 482.231 1195.38 485.811 1192.84C490.48 1189.6 495.71 1188.56 500.713 1186.71C503.489 1185.67 506.848 1185.82 508.019 1182.16C508.148 1181.75 508.946 1181.31 509.148 1181.38C514.473 1183.04 518.243 1178.58 522.876 1177.59C527.057 1176.74 531.198 1175.97 534.939 1173.57C537.23 1172.12 539.943 1172.16 542.544 1172.67C544.168 1172.98 546.083 1173.45 547.267 1172.21C553.052 1166.2 561.262 1165.05 568.257 1162.21C574.76 1159.59 580.775 1155.25 588.096 1154C592.084 1153.33 596.64 1154.24 600.292 1151.31C605.829 1150.04 610.692 1147.05 614.479 1143.09C618.749 1138.67 623.582 1136.87 629.266 1136.55C630.235 1136.5 631.334 1136.91 632.189 1136.46C637.384 1134 642.221 1133.94 647.853 1135.82C653.34 1137.62 657.915 1132.1 656.555 1126.67C656.01 1124.54 654.973 1123.05 652.439 1123.64C653.575 1122.67 654.868 1122.9 656.176 1122.74C658.041 1122.61 660.251 1121.74 660.255 1119.81C660.271 1115.76 662.058 1112.97 664.766 1110.4C665.209 1110.01 665.151 1109.16 665.142 1108.48C663.743 1103.55 659.272 1101.01 656.25 1103.99C650.626 1109.7 643.252 1112.71 637.246 1117.73L636.295 1118.71C635.426 1119.97 635.285 1122.07 633.031 1121.71C628.01 1122.63 624.004 1126.04 619.478 1128.05C616.961 1129.13 614.719 1130.32 611.91 1130.81C605.896 1131.91 599.268 1132.58 598.001 1140.87C597.706 1142.64 596.441 1144.03 594.641 1143.96C591.41 1143.83 588.815 1142.27 586.976 1139.47C584.49 1135.69 581.382 1132.54 578.009 1129.53C576.346 1129.73 574.797 1130.33 573.402 1131.26C572.323 1132.65 571.098 1133.96 571.538 1135.94C571.509 1137.57 573.537 1138 573.612 1139.35C570.48 1143.67 565.481 1143.15 561.463 1145.01C557.253 1147.49 553.206 1150.54 547.866 1149.25C546.08 1148.81 544.872 1150.17 543.639 1151.24C540.229 1154.15 536.956 1156.9 531.908 1156.21C528.839 1155.78 526.033 1158.02 524.755 1160.65C523.509 1163.4 521.838 1163.79 519.448 1163.59C517.816 1163.47 516.275 1163.88 514.872 1164.99C512.929 1166.59 510.685 1166.9 508.446 1165.72C506.061 1164.47 503.955 1165.05 502.174 1166.78C499.91 1168.97 497.561 1169.57 494.611 1168.48C489.957 1166.8 487.42 1170.2 484.754 1173.13L482.938 1173.88C481.325 1177.28 478.481 1179.08 474.406 1179.3L474.309 1179.39Z" fill="#D3AA62"/>
<path d="M632.34 1124.79C633.012 1125.64 633.459 1127 634.695 1126.81C636.246 1126.64 635.75 1125.11 635.958 1124.11L636.838 1119.85L636.893 1119.4L637.345 1119.26L637.725 1119.51C642.092 1117.79 645.372 1113.98 650.177 1112.94C652.429 1112.43 653.426 1109.88 654.714 1107.92C655.568 1106.6 656.538 1102.87 658.8 1107.16C659.579 1108.61 662.441 1105.92 663.222 1108.67C665.99 1115.18 670.268 1117.04 677.521 1116.61C682.965 1116.31 688.062 1115.86 692.765 1112.73C693.644 1112.15 694.671 1112.52 695.632 1112.66C697.321 1112.76 698.952 1112.45 700.591 1111.94C704.353 1110.91 708.206 1110.41 712.091 1110.46C713.673 1109.54 715.426 1109.43 717.162 1109.27C719.133 1109.29 721.064 1109.38 722.961 1108.49C723.832 1108.09 724.76 1107.68 725.405 1106.92C728.282 1099.74 735.541 1097.81 741.123 1094.1C744.221 1092.02 748.733 1094.06 752.462 1092.48C753.447 1092.05 755.063 1092.55 755.708 1091.79C759.665 1087.33 765.859 1085.98 769.581 1081.35C771.209 1079.29 773.744 1078.69 775.437 1076.86C776.936 1075.21 778.071 1073.37 778.236 1071.14C778.543 1067.24 781.07 1066.4 784.06 1066.97C787.77 1067.7 790.796 1066.46 793.708 1064.38C794.781 1063.61 795.676 1062.65 797.114 1062.52C804.407 1062.02 807.57 1056.05 811.405 1050.94C812.702 1049.23 811.922 1047.35 810.998 1045.83C809.985 1044.21 808.28 1044.05 806.658 1044.61C802.355 1046.12 798.328 1048.17 795.015 1051.44C791.411 1054.98 787.214 1056.65 782.279 1057.23C776.521 1057.94 771.3 1060.55 766.694 1064.02C762.661 1067.14 758.979 1068.02 754.676 1064.98C752.216 1063.24 749.494 1063.4 746.508 1064.57C741.463 1066.49 735.987 1067.12 731.689 1070.81C730.799 1073.95 732.602 1074.9 735.204 1075.4C739.318 1076.26 743.022 1078.49 747.088 1079.6C747.896 1079.85 748.996 1080.26 749.168 1081.52C746.048 1084.6 742.118 1082.88 738.967 1082.6C732.455 1082.18 727.987 1085.48 723.721 1089.29C720.036 1092.55 716.031 1093.59 711.331 1094.35C705.283 1095.34 699.098 1096.94 694.431 1101.93C691.513 1105.07 682.521 1108.46 677.104 1106.27C674.945 1105.37 672.73 1104.49 674.59 1101.3C675.733 1099.27 674.614 1097.49 673.512 1095.77C678.585 1091.78 685.408 1090.49 689.234 1084.69C690.82 1082.27 693.409 1080.35 693.136 1077.01C688.055 1077.08 683.56 1079.21 679.364 1081.75C671.336 1086.59 663.778 1092.22 656.609 1098.36C657.133 1101.5 655.477 1101.51 653.294 1100.75C651.954 1101.22 650.703 1101.8 649.89 1103.05C649.472 1104.17 648.804 1105.5 647.77 1105.32C644.869 1104.84 643.355 1107.3 641.176 1108.29C639.987 1111.46 637.7 1110.98 635.291 1110.28C634.322 1110.33 633.49 1110.65 633.097 1111.65L631.264 1112.34C630.911 1113.25 629.756 1113.3 629.24 1114.08C627.984 1116.15 629.054 1117.76 630.083 1119.43C631.04 1121.07 632.755 1122.35 632.461 1124.56L632.34 1124.79Z" fill="#D3AA62"/>
<path d="M148.12 1299.82C147.286 1295.15 152.027 1293.87 153.774 1290.71C154.458 1289.44 156.692 1291.25 157.778 1292.47C159.649 1294.52 161.776 1295.3 164.335 1294.14C166.685 1293.1 168.826 1293.06 171.333 1294.1C173.145 1294.86 176.727 1295.56 175.052 1290.96C174.971 1290.67 174.808 1290.1 174.849 1290.02C177.714 1288.2 179.876 1286.29 176.757 1282.87C180.645 1283.36 179.074 1273.48 185.265 1278.19C186.204 1278.9 187.092 1278.13 187.526 1277.06C188.885 1273.83 191.889 1272.71 194.445 1273.92C200.269 1276.69 202.634 1271.15 206.218 1269.05C208.752 1267.58 210.849 1265.43 214.09 1265.81C214.405 1265.83 214.817 1265.77 214.995 1265.53C220.003 1260.42 225.404 1262.13 230.823 1264.33C231.171 1264.48 231.671 1264.07 232.576 1263.79C230.906 1261.37 226.904 1260.48 228.544 1256.29C229.123 1254.86 227.102 1254.67 226.142 1255.41C225.182 1256.14 224.538 1257.34 223.813 1258.25C222.333 1258.02 222.128 1256.64 221.262 1255.97C217.911 1253.26 216.532 1246.88 210.017 1249.7C209.564 1249.84 208.69 1248.92 207.962 1248.52C206.161 1249.32 204.004 1249.74 202.649 1251.03C192.793 1260.5 180.047 1263.25 167.771 1267.22C165.679 1267.86 163.766 1268.7 162.25 1270.29C163.942 1271.71 165.634 1269.44 167.98 1270.34C166.929 1274.22 165.085 1277.48 161.898 1279.9C161.091 1280.52 159.605 1280.92 159.541 1281.56C158.747 1288.3 152.735 1288.34 148.561 1290.32C144.274 1292.33 140.74 1295.04 137.676 1298.54C136.426 1299.99 135.513 1300.02 134.016 1298.86C131.329 1296.75 126.408 1297.4 125.122 1300.67C123.418 1305.06 119.556 1305.75 116.319 1307.56C115.254 1308.14 114.164 1308.42 114.199 1309.84C114.402 1314.46 112.194 1313.4 109.702 1311.98C104.063 1308.78 98.9096 1310.12 95.5514 1315.84C93.3931 1319.5 91.2656 1322.41 86.71 1319.57C85.9656 1319.11 85.109 1319.12 84.5532 1319.98C83.957 1320.91 83.9674 1322.03 84.9303 1322.61C86.4756 1323.51 86.874 1324.7 86.3602 1326.36C88.1018 1328.38 90.2406 1327.03 92.1962 1326.99C93.6507 1326.92 94.9347 1326.46 96.1612 1325.58C97.0572 1325.06 97.7424 1324.22 98.5492 1323.6C100.927 1320.49 104.094 1320.39 107.53 1321.02C115.388 1318.59 122.053 1313.48 129.757 1310.73C134.354 1306.13 139.462 1302.68 146.227 1302.9C147.664 1302.34 148.373 1301.37 148.233 1299.79L148.12 1299.82Z" fill="#D3AA62"/>
<path d="M692.967 1077.04C689.703 1078.11 688.708 1081.54 686.424 1083.68C680.525 1089.13 672.81 1091.64 666.587 1096.81C667.662 1100.61 670.985 1096.71 672.629 1098.39C673.255 1099.95 671.93 1100.04 671.13 1100.48C669.458 1101.31 668.677 1102.67 668.826 1104.5C669.032 1106.32 670.464 1106.81 671.88 1107.25C675.762 1108.37 679.156 1111.45 683.809 1109.64C688.575 1107.79 693.734 1108.2 697.531 1102.71C700.102 1098.98 706.057 1097.2 711.02 1096.92C716.525 1096.6 721.343 1096.24 725.116 1091.32C729.736 1085.27 736.591 1084.72 743.125 1085.64C747.549 1086.28 750.825 1083.51 754.859 1083.21C755.586 1083.17 756.328 1082.32 756.254 1081.4C756.146 1079.93 754.812 1079.78 753.784 1079.41C746.551 1076.89 739.744 1073.05 732.045 1071.92C731.242 1070.6 729.997 1070.55 728.728 1070.63C727.516 1070.69 726.36 1070.74 725.18 1070.91C724.282 1071 723.312 1071.05 722.578 1071.71C721.803 1072.45 720.809 1072.64 719.783 1072.7C719.161 1072.89 718.555 1073.14 717.916 1073.28C714.36 1073.75 710.788 1074.16 707.68 1076.44C706.106 1077.61 704.537 1077.72 703.046 1075.93C701.166 1073.63 698.887 1074.27 696.708 1075.69L693.096 1077.06L692.967 1077.04Z" fill="#D3AA62"/>
<path d="M572.797 1135.56L573.257 1131.11L562.458 1133.13L561.942 1133.48C561.248 1134.06 560.416 1133.95 559.583 1133.83C558.541 1133.84 557.646 1134.8 556.53 1134.33L551.619 1135.22C550.709 1136.56 549.661 1137.63 547.914 1136.67C536.574 1138.73 525.836 1142.92 514.903 1146.41C503.364 1150.15 491.379 1152.53 480.247 1157.71C478.027 1158.77 475.637 1159.44 473.831 1161.31C475.643 1162.5 477.031 1161.76 478.677 1160.63C482.276 1158.15 487.83 1159.74 489.89 1163.54C490.823 1165.31 491.125 1166.59 488.572 1167.13C485.439 1167.78 484.668 1170.27 484.44 1173.15C488.976 1170.94 493.489 1169.3 498.11 1172.81C502.391 1168.18 507.953 1169.59 513.074 1168.57C517.314 1167.7 520.962 1165.83 525.434 1167.51C527.285 1168.19 529.102 1167.44 527.73 1164.55C526.205 1161.34 528.322 1157.75 531.646 1158.85C537.702 1160.92 540.61 1156.65 544.337 1153.76C546.087 1152.34 547.725 1150.96 550.022 1152.13C552.772 1153.59 554.879 1153 556.773 1150.36C558.054 1148.59 560.169 1147.82 562.228 1147.06C562.489 1144.29 564.174 1142.65 566.515 1141.37C569.065 1139.96 571.761 1138.63 572.797 1135.56Z" fill="#D3AA62"/>
<path d="M728.147 1073.64L731.869 1072.24C736.745 1070.37 741.686 1068.72 746.425 1066.57C749.476 1065.2 751.772 1065.93 753.958 1068C757.528 1071.27 762.771 1071.34 766.505 1067.82C771.553 1063.08 777.422 1060.58 784.127 1059.95C789.264 1059.43 793.469 1057.14 796.814 1053.11C799.103 1050.35 802.218 1048.76 805.244 1047.08C806.576 1046.36 808.24 1046.16 809.221 1047.67C810.185 1049.12 808.975 1050.05 808.024 1051.03C807.306 1051.75 806.233 1052.52 806.146 1053.29C805.945 1057.79 802.724 1059.22 799.388 1059.81C793.372 1060.91 788.761 1066.33 781.875 1065.01C779.458 1064.51 777.087 1066.99 776.609 1070.07C776.242 1072.24 775.729 1074.33 773.704 1075.65C774.697 1079.15 777.152 1078.7 778.448 1076.56C780.397 1073.46 782.345 1073.61 785.376 1074.11C788.98 1074.68 792.445 1074.12 795.538 1077.22C797.789 1079.52 801.249 1076.77 801.096 1073.2C800.792 1066.49 801.302 1067.21 806.821 1063.26C812.032 1059.53 816.563 1054.7 822.237 1051.52C822.517 1050.12 822.546 1048.49 824.161 1048.12C822.231 1048.9 822.162 1050.61 822.57 1052.48C823.356 1053.73 824.521 1054.37 825.861 1053.9C832.482 1051.67 839.551 1051.68 846.026 1048.93C847.067 1048.49 848.092 1047.98 848.906 1047.17C849.794 1042.72 849.567 1042.35 843.786 1040.39C844.04 1038.25 846.501 1036.31 844.549 1033.97C840.207 1032.32 836.224 1032.79 831.671 1034.51C825.874 1036.61 820.751 1039.99 815.116 1042.23C814.946 1042.28 815.036 1042.82 814.769 1042.52C814.663 1042.37 814.792 1041.96 814.694 1041.61C811.741 1039.65 809.492 1041.9 807.03 1042.97C798.367 1046.45 789.859 1050.26 781.571 1054.62C770.812 1060.25 758.87 1060.18 747.5 1063C735.508 1066.01 722.978 1066.68 711.394 1071.56C711.067 1073.66 712.507 1074.4 713.961 1074.33C715.585 1074.2 716.685 1075.05 717.987 1075.52L719.265 1076.13C721.181 1076.6 721.573 1074.73 722.653 1073.77L724.819 1074.04C725.846 1074.41 726.922 1074.95 727.93 1073.96L728.147 1073.64Z" fill="#D3AA62"/>
<path d="M632.602 1124.49C634.345 1122.39 634.034 1120.42 632.573 1118.3C631.551 1116.86 630.739 1115.3 629.887 1113.81C628.478 1113.18 627.309 1114.92 625.843 1114.3C616.137 1118.49 606.161 1121.51 595.77 1123.28C589.601 1124.31 583.775 1127.42 577.801 1129.58C578.675 1133.32 578.328 1137.75 583.305 1139.03C583.434 1139.06 583.686 1139.29 583.629 1139.31C581.87 1145.49 587.425 1144.46 590.123 1146.39C593.817 1149.01 599.297 1147.06 600.356 1142.54C601.839 1136.25 606.265 1132.76 612.721 1133.39C615.82 1133.69 617.701 1131.85 620.085 1130.93C624.604 1129.28 628.148 1125.93 632.642 1124.42L632.602 1124.49Z" fill="#D3AA62"/>
<path d="M858.697 1025.85L860.49 1021.99C859.414 1021.01 858.145 1020.66 856.887 1021.42C850.046 1025.45 842.156 1026.01 834.916 1028.43C828.338 1030.58 822.248 1034.44 816.117 1037.95C813.148 1039.61 809.523 1040.04 807.105 1042.78C809.472 1042.67 811.81 1040.96 814.268 1042.26C814.544 1042.8 814.964 1042.98 815.546 1042.86C819.32 1044.25 822.271 1041.66 825.16 1040.15C830.154 1037.62 835.288 1036.23 840.673 1035.5C841.796 1035.35 842.877 1034.83 843.951 1034.5C844.832 1035.22 845.794 1035.36 846.835 1034.92C849.695 1031.36 854.321 1030.56 857.635 1027.73C858.231 1027.24 858.537 1026.58 858.697 1025.85Z" fill="#D3AA62"/>
<path d="M316.166 1200.48C317.928 1200.18 320.51 1198.01 321.227 1200.54C321.96 1203.13 318.767 1203.36 316.82 1204.09C310.43 1206.5 304.251 1209.66 297.349 1210.47C295.813 1210.7 294.578 1211.77 294.728 1213.6C294.853 1215.56 296.213 1216.45 297.992 1216.66C300.919 1217 303.675 1216.53 305.278 1213.72C307.26 1210.29 309.835 1208.31 313.901 1208.12C315.728 1208.06 317.796 1207.1 319.314 1205.95C323.552 1202.89 327.349 1205.66 331.167 1206.54C333.068 1206.96 334.947 1208.82 336.058 1206.22C337.128 1203.7 338.9 1200.4 335.564 1198.18C334.131 1197.25 332.562 1196.92 332.986 1194.72C326.419 1193.68 321.195 1196.74 316.077 1200.38L316.166 1200.48Z" fill="#D3AA62"/>
<path d="M239.997 1241.87C243.295 1241.35 246 1239.83 248.834 1237.89C254.986 1233.55 262.528 1232.6 269.354 1229.99C267.102 1227.68 268.828 1225.52 270.262 1223.2C266.773 1224.78 263.941 1223.9 260.795 1223.44C257.964 1223 254.46 1225.39 251.65 1227.2C249.163 1228.84 246.755 1229.46 243.869 1229.47C239.883 1229.51 236.789 1230.97 236.67 1235.76C237.321 1238.06 235.873 1241.64 240.07 1241.91L239.997 1241.87Z" fill="#D3AA62"/>
<path d="M240.115 1241.82C238.928 1239.8 239.902 1236.48 236.709 1235.65C231.967 1238.06 227.47 1240.89 222.387 1242.53C220.607 1243.64 217.791 1245.02 219.084 1247.19C220.075 1248.96 224.704 1250.73 224.881 1250.49C228.467 1245.29 232.006 1249.1 235.531 1250.02C236.803 1250.38 237.758 1249.83 238.168 1248.45L240.099 1241.76L240.115 1241.82Z" fill="#D3AA62"/>
<path d="M718.323 1074.81C717.563 1071.04 713.82 1072.38 711.681 1070.91C706.563 1072.18 701.046 1072.25 696.514 1075.6C699.798 1075.46 702.332 1075.93 700.108 1080.25C699.705 1081 699.391 1081.85 700.282 1082.39C701.246 1082.97 702.07 1082.4 702.983 1081.93C708.018 1079.5 712.459 1075.62 718.266 1074.83L718.323 1074.81Z" fill="#D3AA62"/>
<path d="M125.11 1286.66C126.623 1287.87 128.197 1287.58 129.649 1286.63C136.351 1282.33 143.938 1280.06 151.217 1277.13C153.75 1276.1 156.608 1275.35 157.667 1272.16C147.375 1278.31 135.914 1281.65 125.11 1286.66Z" fill="#D3AA62"/>
<path d="M653.195 1100.61C653.177 1103.81 654.515 1104.84 656.987 1102.7C658.571 1101.33 660.399 1100.83 662.551 1100.16C661.176 1096.82 658.838 1097.48 656.477 1098.28L653.155 1100.68L653.195 1100.61Z" fill="#D3AA62"/>
<path d="M641.376 1108.36C643.663 1108.4 645.298 1106.15 648.014 1106.62C649.695 1106.92 650.07 1104.55 649.897 1102.86C644.527 1104.51 640.067 1108.51 634.422 1109.63C633.541 1109.77 633.244 1110.68 633.044 1111.49L635.878 1110.43C638.393 1111.71 640.144 1110.73 641.36 1108.3L641.376 1108.36Z" fill="#D3AA62"/>
<path d="M547.89 1136.53C548.73 1137.97 547.884 1141.32 550.092 1140.83C552.658 1140.28 551.067 1137.06 551.559 1135.08L547.834 1136.55L547.89 1136.53Z" fill="#D3AA62"/>
<path d="M354.218 1189.63C352.926 1190.28 351.617 1190.87 350.042 1191.61C352.323 1192.28 354.136 1191.8 355.48 1190.18L354.218 1189.63Z" fill="#D3AA62"/>
<path d="M462.296 1166.54C465.612 1165.03 469.869 1165.52 472.091 1161.66C468.791 1163.24 464.963 1163.61 462.296 1166.54Z" fill="#D3AA62"/>
<path d="M361.332 1192.26L365.321 1188.52L361.489 1190.21C360.18 1190.8 360.392 1191.55 361.348 1192.32L361.332 1192.26Z" fill="#D3AA62"/>
<path d="M556.508 1134.27L559.603 1134.13C560.743 1134.47 561.826 1134.38 562.381 1133.09L562.364 1133.03C560.222 1132.63 558.381 1133.51 556.508 1134.27Z" fill="#D3AA62"/>
<path d="M625.708 1114.3C627.09 1114.62 628.406 1114.28 629.746 1113.8L631.245 1112.16L625.708 1114.3Z" fill="#D3AA62"/>
<path d="M599.77 1149.16C595.579 1151.69 590.603 1149.74 586.257 1151.94C585.024 1152.57 582.981 1152.08 582.055 1152.92C576.069 1158.41 567.149 1157.49 561.237 1163.02C559.787 1164.4 557.843 1165.12 555.76 1164.7C553.031 1164.17 551.04 1165.16 549.495 1167.49C547.733 1170.14 545.386 1171.17 542.269 1170.14C539.079 1169.07 536.046 1170.06 533.411 1171.8C530.815 1173.46 528.009 1174.82 525.192 1174.63C518.703 1174.26 513.57 1178.44 508.24 1180.63C502.531 1183 496.7 1185.16 490.877 1187.13C487.014 1188.44 483.928 1191.18 480.268 1192.99C474.729 1195.74 467.861 1195.98 463.547 1201.52C462.114 1203.39 460.739 1205.67 458.214 1206.51C457.875 1206.61 457.433 1207.43 457.498 1207.66C460.925 1213.86 455.586 1211.72 453.118 1212.53C448.593 1214.11 444.194 1213.97 439.392 1213.7C435.219 1213.49 429.961 1215.72 426.223 1218.98C423.871 1221.06 421.622 1222.44 418.572 1222.94C415.409 1223.47 412.118 1223.98 409.67 1226.59C408.582 1227.73 406.968 1227.67 405.491 1227.44C400.429 1226.7 396.122 1228.39 391.948 1231.41C389.152 1233.44 385.105 1231.95 382.212 1234.08C376.789 1238.1 370.498 1236.49 364.696 1236.6C360.919 1236.7 357.047 1233.67 352.786 1233.8C346.989 1236.94 340.452 1236.83 334.305 1238.53C333.571 1238.76 332.393 1238.93 331.908 1238.52C327.162 1234.15 326.679 1238.7 325.442 1241.68C325.089 1242.6 324.679 1243.53 324.309 1244.38C322.672 1244.89 322.403 1243.29 321.473 1242.84C318.864 1241.65 317.454 1242.52 316.967 1245.33C316.744 1246.7 317.854 1248.66 315.716 1249.13C312.094 1249.99 307.965 1251.87 304.808 1250.92C298.783 1249.17 294.601 1252.37 290.119 1254.74C283.298 1258.38 276.37 1260.57 268.773 1259.11C266.246 1258.65 263.985 1258.47 262.369 1261.2C261.17 1263.24 259.361 1262.49 257.593 1262.1C255.711 1261.75 253.386 1261.35 253.861 1264.74C254.37 1265.01 254.839 1265.37 255.453 1265.37C254.839 1265.37 254.354 1264.96 253.918 1264.72C248.949 1266.24 244.96 1268.83 241.425 1273.01C237.714 1277.44 231.443 1277.62 226.428 1279.84C219.275 1282.97 211.341 1282.48 203.936 1284.5C201.661 1285.14 199.476 1285.87 199.135 1288.77C198.722 1292.06 197.026 1291.71 195.135 1290.24C193.138 1288.62 192.179 1289.35 190.382 1291.01C185.984 1294.97 180.63 1297.29 174.715 1297.86C171.079 1299.54 167.92 1302.24 163.968 1303.45C161.766 1304.13 160.358 1306.3 160.46 1308.81C160.604 1311.68 159.024 1312.6 156.684 1313C155.579 1313.22 154.11 1313.23 153.514 1314.16C149.435 1320.31 142.745 1320.31 136.727 1322.03C131.613 1323.48 129.565 1328.14 132.011 1332.41C138.944 1328.3 146.638 1326.01 153.928 1322.72C158.661 1320.58 163.986 1319.88 168.152 1316.62C174.719 1311.45 182.976 1311.77 190.298 1309.03C192.129 1308.34 194.163 1308.15 195.888 1307.31C203.958 1303.1 213.085 1302.6 221.545 1299.76C223.957 1298.96 224.891 1297.93 223.764 1295.48C222.597 1293.11 223.556 1292.38 225.985 1292.07C230.487 1291.5 234.326 1290.32 237.662 1295.56C239.864 1298.98 245.237 1297.58 248.445 1295.48C252.741 1292.68 258.329 1290.53 258.638 1283.86C258.708 1282.6 259.635 1281.76 260.958 1281.66C262.281 1281.57 263.106 1282.31 263.464 1283.56C263.789 1284.7 263.228 1286.61 265.278 1286.48C267.666 1286.24 270.168 1285.97 272.377 1285.11C273.7 1284.58 273.341 1282.89 272.057 1282.48C270.918 1282.15 269.62 1282.54 267.57 1282.68C270.3 1279.54 272.967 1277.49 276.616 1278.23C279.475 1278.78 280.845 1277.99 281.703 1275.18C282.176 1273.61 283.366 1271.76 285.241 1272.73C287.131 1273.77 289.137 1275.63 289.343 1277.86C289.532 1279.6 287.045 1279.06 285.812 1279.69C283.99 1280.62 280.049 1279.29 280.717 1282.49C281.369 1285.64 284.772 1284.23 287.014 1283.48C292.821 1281.45 298.14 1277.71 304.727 1278.42C305.672 1278.5 306.897 1277.63 307.726 1276.88C311.448 1273.57 315.949 1272.13 320.661 1271.43C322.121 1271.17 323.638 1270.89 324.652 1269.71C327.704 1266.42 331.325 1265.12 335.75 1266C337.631 1266.35 339.155 1265.45 340.532 1264.03C343.81 1260.67 346.223 1256.65 352.56 1257.56C356.032 1258.11 360.164 1254.3 364.026 1252.55L387.411 1242.41C388.83 1241.79 390.275 1241.9 391.712 1242.21C396.282 1243.16 400.752 1242.48 405.269 1241.53C409.956 1240.52 414.912 1240.68 418.876 1237.36C418.973 1237.26 419.199 1237.19 419.328 1237.22C429.871 1238.45 438.143 1230.21 447.898 1229.33C458.38 1228.41 465.233 1220.79 473.981 1216.81C476.747 1215.52 479.091 1213.19 482.432 1213.29C483.861 1213.34 485.078 1212.66 485.398 1211.2C486.269 1207.15 489.304 1207.02 492.315 1207.47C496.029 1208 498.998 1207.65 501.242 1204.11C502.731 1201.79 505.256 1201.39 507.84 1201.84C511.069 1202.4 514.208 1202 516.414 1199.4C521.1 1193.87 527.528 1192.08 533.876 1190.01C534.497 1189.82 535.369 1189.87 535.739 1189.44C541.98 1182.69 551.054 1183.94 558.545 1180.72C560.682 1179.81 562.861 1179.7 565.218 1179.79C569.132 1179.95 573.093 1178.99 576.195 1176.3C579.047 1173.81 582.24 1172.52 585.822 1171.74C589.759 1170.9 593.583 1170.1 596.448 1166.37C597.824 1164.52 601.009 1162.99 603.456 1163.6C608.479 1164.85 613.092 1163.38 617.884 1162.53C620.506 1162.04 622.119 1161.23 622.459 1157.9C622.91 1153.67 626.854 1152.21 630.266 1151.48C634.558 1150.6 638.038 1147.3 642.8 1147.64C644.504 1147.8 645.725 1145.19 646.94 1143.64C644.688 1139.61 640.833 1140.73 638.019 1141.85C634.43 1143.26 630.937 1144.14 627.242 1144.53C620.076 1145.24 613.716 1148.98 606.494 1149.71C603.993 1149.98 601.879 1150.32 599.721 1148.99L599.77 1149.16Z" fill="#D3AA62"/>
<path d="M132.451 1332.39C134.141 1325.58 136.745 1323.28 144.198 1322.92C148.446 1322.73 151.803 1321.58 153.935 1317.62C154.957 1315.81 156.741 1315.39 158.517 1315.15C161.94 1314.66 164.594 1312.97 166.753 1310.19C166.562 1308.01 163.095 1310.51 163.477 1307.96C163.812 1305.68 165.732 1304.65 167.694 1304.42C171.876 1304.01 174.076 1301.59 175.11 1297.66C172.322 1296.71 169.68 1296.27 167.425 1299.15C166.015 1300.89 163.68 1300.67 161.638 1301.05C157.496 1301.39 153.06 1300.27 149.399 1302.95C142.44 1308.08 134.092 1309.4 126.361 1312.46C124.15 1313.33 121.753 1314.19 120.505 1316.07C115.336 1323.39 107.643 1325.07 99.8043 1326.67C97.5924 1327.1 95.3976 1328.03 95.2574 1330.56C94.9762 1335.19 91.8449 1336.28 88.3413 1336.92C84.7246 1337.6 81.4564 1338.85 78.7902 1342.23C77 1339.6 75.4282 1337.1 72.3019 1336.69C71.8174 1336.71 71.4057 1336.78 70.9537 1336.92C67.1865 1339.01 63.8808 1341.64 62.0235 1345.7C61.718 1346.36 61.4689 1346.99 60.88 1347.3C55.0713 1350.21 52.0954 1356.17 47.5006 1360.32C42.6157 1364.75 36.5638 1367.23 30.2172 1367.82C24.226 1368.35 18.2279 1369.51 12.0242 1368.87C7.41195 1368.42 2.62103 1371.45 -0.877263 1374.7C-4.56901 1378.14 -8.24215 1378.84 -12.6294 1377.88C-15.8479 1379.74 -19.3669 1380.76 -22.9939 1380.32C-29.2866 1379.58 -35.6245 1380.41 -41.9001 1380.16C-46.1323 1379.96 -49.8104 1382.15 -53.433 1383.89C-56.3536 1385.29 -59.2932 1385.32 -62.2884 1385.81C-67.641 1386.64 -73.7728 1385.6 -78.1647 1390.25C-78.6773 1392.34 -77.6251 1393.45 -75.8394 1393.9C-73.1891 1394.58 -70.4909 1394.99 -67.6729 1394.75C-58.4279 1393.77 -49.3311 1391.41 -39.985 1392.52L-36.3701 1390.97C-33.0336 1387.58 -29.0694 1387.05 -24.7301 1388.27L-22.9145 1387.52C-19.3973 1385.63 -15.4124 1387.33 -11.8454 1386.05C-7.05449 1383.02 -2.01061 1385.2 2.9235 1385.05C8.71364 1384.89 14.5485 1386.84 20.3753 1384.86C25.2416 1383.17 29.5137 1379.18 35.4326 1382.72C37.6481 1384.03 40.2167 1380.31 42.9696 1379.84C50.9862 1378.43 58.5711 1375.29 66.3599 1373.08C68.8055 1372.39 70.8864 1371.06 72.9108 1369.76C79.5643 1365.28 86.3719 1361.13 93.236 1356.97C96.6882 1354.85 99.4597 1351.63 102.474 1348.83C108.487 1343.18 114.444 1337.55 123.05 1336.27C126.417 1335.8 128.776 1332.21 132.484 1332.5L132.451 1332.39Z" fill="#D3AA62"/>
<path d="M724.915 1105.96L722.139 1107C720.418 1106.35 718.635 1107.21 716.883 1106.88L711.332 1108.95C707.822 1110.22 704.313 1111.48 700.525 1110.91C698.821 1110.75 697.19 1111.06 695.585 1111.68C693.997 1113.22 694.089 1114.63 696.013 1115.78C708.756 1112.86 721.827 1112.39 734.685 1110.3C739.084 1109.57 739.263 1110.2 736.651 1115.92C739.317 1117.09 740.824 1115.69 741.345 1113.42C742.121 1109.88 744.645 1108.61 747.526 1107.72C752.117 1106.38 753.104 1107.25 753.219 1112.19C755.353 1113.22 756.471 1111.32 757.85 1110.34C765.364 1105.23 773.276 1100.87 781.975 1098.2C782.935 1097.9 784.041 1097.69 784.661 1097.06C792.179 1089.59 802.59 1087.32 811.274 1081.79C816.274 1078.64 821.946 1076.77 825.941 1071.81C827.431 1069.92 830.233 1070.49 832.502 1070.48C840.173 1070.67 846.967 1068.65 850.634 1061.24C853.424 1055.72 859.231 1056.48 863.198 1053.59C870.728 1048.1 880.249 1048.97 888.477 1045.07C892.155 1043.32 897.496 1041.37 902.425 1043.15C902.026 1045.64 900.394 1045.08 899.288 1045.3C896.665 1045.79 894.261 1046.84 892.465 1048.95C891.821 1049.71 891.152 1050.6 891.93 1051.6C892.512 1052.35 893.425 1052.32 894.199 1052.02C898.717 1050.2 903.576 1049.14 906.27 1044.15C908.345 1040.21 912.17 1038.98 916.296 1039.01C918.75 1039.01 920.598 1038.38 922.208 1036.26C924.721 1033 928.837 1032.36 932.284 1031.74C940.621 1030.17 947.102 1024.88 954.142 1020.92C958.973 1018.25 963.099 1014.18 968.594 1012.56C970.232 1012.06 971.465 1010.99 972.019 1009.27C973.461 1007.64 975.205 1007.73 976.975 1008.55C978.906 1009.08 980.171 1007.7 981.598 1006.88C984.029 1007.01 986.143 1006.67 985.612 1003.29C984.074 1001.77 982.224 1001.09 980.304 1002.12C972.909 1006.13 964.283 1004.74 956.724 1008.18C951.933 1010.34 946.127 1010.01 942.155 1014.4C941.785 1014.82 940.97 1015.2 940.396 1015.13C933.355 1014.55 928.496 1019.28 922.688 1022.18C915.268 1025.9 907.988 1031.61 898.611 1029.96C895.824 1029.44 893.262 1032.1 890.779 1033.73C889.45 1035.32 887.546 1035.97 885.836 1036.87C884.505 1037.59 882.115 1037.39 883.129 1039.87C884.046 1042.02 885.886 1041.58 887.612 1040.74C887.894 1040.65 888.144 1040.45 888.492 1040.59C882.382 1041.78 876.426 1043.3 871.153 1046.79C870.274 1047.37 869.062 1047 868.448 1046.56C863.458 1042.62 859.574 1046.24 855.986 1048.96C854.124 1050.4 852.768 1050.82 850.789 1050.12C847.379 1048.93 844.46 1050.76 843.44 1053.44C840.99 1059.73 835.446 1060.75 830.419 1062.72C828.757 1063.36 826.949 1063.48 825.555 1064.84C823.831 1066.55 821.78 1066.69 819.63 1065.6C818.773 1065.18 817.86 1064.78 816.883 1064.58C810.146 1062.92 806.325 1065.9 805.767 1073.66C805.602 1075.89 805.241 1076.99 803.135 1077.58C800.351 1078.37 798.368 1080.04 796.775 1082.64C794.248 1086.71 789.559 1087.72 785.403 1088.87C777.899 1090.99 770.189 1091.74 763.068 1095.86C758.955 1098.24 753.66 1098.62 748.732 1097.71C745.502 1097.15 742.636 1097.66 739.814 1099.39C735.177 1102.31 729.762 1103.35 725.044 1105.99L724.915 1105.96Z" fill="#D3AA62"/>
<path d="M696.228 1115.33L695.799 1111.21C693.938 1109.85 692.191 1109.33 689.955 1110.77C681.448 1116.33 672.912 1115.71 665.301 1109.24C664.832 1108.89 664.088 1108.87 663.482 1108.68C662.144 1110.47 660.295 1111.54 658.463 1112.67C656.533 1113.89 655.38 1115.24 657.115 1117.46C657.876 1118.41 658.428 1119.49 657.088 1120.4C655.845 1121.22 655.149 1120.5 654.355 1119.43C652.094 1116.44 651.98 1116.48 648.657 1119.5C648.677 1121.31 653.759 1120.8 650.614 1124.02C649.331 1125.35 647.24 1126 646.961 1128.27C648.636 1129.19 649.248 1127.88 650.038 1127.2C651.095 1126.37 652.255 1124.39 653.552 1126.37C654.623 1127.97 654.967 1130.49 653.127 1131.81C650.617 1133.58 647.695 1135.42 644.763 1132.45C642.957 1130.63 640.595 1129.67 638.594 1131.29C634.326 1134.67 629.25 1134.55 624.627 1134.72C619.592 1134.96 616.47 1137.61 613.349 1140.7C609.332 1144.75 604.658 1147.57 599.36 1149.26C598.801 1152.5 600.646 1153.8 603.214 1152.89C608.593 1151.04 614.829 1153.3 619.75 1148.97C621.913 1147.06 625.082 1147.83 627.757 1147.5C634.173 1146.71 640 1142.98 646.646 1143.87C654.626 1141.66 661.997 1137.51 670.173 1135.99C670.456 1135.9 670.94 1135.88 671.077 1135.71C674.066 1130.85 678.716 1128.17 683.252 1125.08C685.415 1123.6 687.011 1121.42 689.87 1120.66C692.617 1119.94 694.69 1117.93 696.171 1115.35L696.228 1115.33Z" fill="#D3AA62"/>
<path d="M724.897 1105.85C726.723 1106.66 728.688 1107.74 730.47 1106.44C739.792 1099.46 750.761 1100.45 761.241 1099.28C762.549 1099.13 763.914 1099.39 764.978 1098.38C770.668 1092.89 778.318 1093.66 785.008 1091.47C790.286 1089.73 796.908 1089.68 799.591 1082.69C800.571 1080.09 803.42 1079.09 806.289 1079.88C808.276 1080.39 809.851 1080.1 810.824 1078.12C811.716 1076.28 810.487 1075.42 809.201 1074.57C807.317 1073.34 808.258 1071.68 808.861 1070.13C809.528 1068.36 810.098 1066.69 812.375 1066.49C815.08 1066.28 817.528 1066.9 819.671 1068.61C821.726 1070.22 823.714 1070.73 825.477 1068.07C826.918 1066 829.057 1065.1 831.374 1064.82C836.888 1064.12 840.753 1058.7 846.884 1059.3C848.532 1059.48 848.553 1057.61 847.145 1056.55C846.369 1055.97 845.214 1056.02 844.887 1054C849.677 1050.54 856.52 1056.03 861.056 1050.59C861.247 1049.09 858.761 1049.86 858.499 1048.07C860.603 1046.18 863 1045.75 865.515 1047.03C868.174 1048.4 870.904 1048.49 873.551 1047.43C880.41 1044.76 887.764 1043.18 893.754 1038.1L884.76 1039.31C886.864 1037.42 889.243 1036.06 890.538 1033.48L888.706 1034.17C884.526 1035.46 880.597 1037.41 876.351 1038.47C874.228 1039 870.675 1039.03 870.942 1043.43C871.091 1045.26 868.998 1044.59 867.907 1043.99C866.362 1043.1 864.526 1041.61 863.019 1043.01C859.19 1046.61 854.996 1045.47 850.699 1045.05C849.931 1044.73 849.237 1044.88 848.867 1045.74C841.744 1049.43 833.529 1048.4 826.324 1051.8C825.073 1052.37 823.772 1051.9 822.592 1051.21C816.124 1051.58 810.757 1053.66 807.646 1060.22C806.568 1062.49 803.484 1062.87 801.143 1063.28C796.969 1063.94 796.642 1066.04 797.707 1069.57C798.293 1071.63 799.929 1073.93 796.729 1077.16C797.508 1070.82 794.391 1071.09 790.887 1071.73C788.958 1072.07 787.069 1072.34 785.177 1071.31C780.132 1068.69 780.019 1068.72 777.325 1074.16C776.456 1075.86 775.805 1077.24 773.743 1075.82C771.047 1076.71 768.691 1077.93 767.187 1080.64C765.602 1083.49 762.348 1083.93 759.587 1084.59C757.69 1085.05 756.633 1085.44 756.492 1087.54C756.445 1088.24 755.535 1089.58 755.406 1089.56C751.73 1088.51 748.408 1091.08 745.072 1090.8C742.923 1090.59 741.3 1090.72 739.671 1091.9C735.204 1095.21 731.012 1099.05 725.102 1099.44C723.591 1099.53 723.538 1100.85 723.896 1102.11L724.856 1105.93L724.897 1105.85Z" fill="#D3AA62"/>
<path d="M85.6729 1326.91C85.0374 1328.35 84.0456 1329.41 82.7463 1330.25C80.1811 1332.47 75.4271 1331.32 74.3131 1335.85L71.9577 1337.95C73.4791 1338.98 74.9439 1340.02 74.2374 1342.3C73.7399 1344.02 73.7272 1345.71 75.765 1346.39C77.6169 1347.07 79.6367 1346.82 80.5136 1344.93C82.5733 1340.48 86.4097 1339.49 90.546 1338.9C93.0343 1338.57 95.0839 1337.12 97.2877 1336.01C98.9425 1335.12 99.9669 1334.18 98.3547 1332.18C96.548 1329.93 98.2593 1329.03 100.094 1329.21C104.564 1329.58 108.08 1325.94 112.833 1326.66C115.605 1327.11 117.141 1323.21 118.696 1321.1C123.653 1314.52 131.084 1312.97 137.915 1310.18L161.533 1300.9C157.572 1296.25 153.057 1297.46 148.456 1299.88L146.084 1301.92C139.96 1302.43 135.192 1306.65 129.637 1308.74C121.586 1311.78 113.95 1315.63 106.256 1319.5C103.472 1321.17 100.188 1320 97.2976 1321.08L95.8142 1322.78C94.8712 1324.01 93.7415 1324.8 92.1808 1324.28L86.6742 1326.54L85.8022 1326.93L85.6729 1326.91Z" fill="#D3AA62"/>
<path d="M378.265 1228.79L381.919 1227.35C384.806 1226.46 387.538 1225.24 389.823 1223.09C386.475 1219.73 385.09 1215.27 383.213 1211.02C382.392 1209.21 382.095 1206.42 379.224 1206.93C377.404 1207.24 375.879 1213.6 376.886 1215.42L379.599 1220.67C380.152 1221.75 380.478 1222.9 379.469 1223.9C378.653 1224.72 377.705 1224.2 376.726 1224C371.4 1223.01 366.637 1224.23 362.333 1228.38C361.041 1225.78 358.863 1224.82 356.033 1225.69C351.844 1226.99 348.1 1224.19 344.055 1224.25C343.254 1224.25 342.403 1223.64 342.668 1222.61C342.965 1221.27 344.201 1220.64 345.278 1220.74C348.733 1220.99 351.222 1219.34 353.458 1217.02C354.354 1216.06 355.663 1215.02 354.77 1213.61C354.015 1212.46 352.658 1213.76 351.566 1213.6C349.983 1219.1 347.695 1219.93 340.522 1217.63C339.51 1217.32 338.682 1216.13 337.219 1216.84C339.85 1221.35 333.114 1227.13 339.619 1231.2C342.955 1224.72 348.055 1225.78 353.587 1228.58C356.6 1230.09 361.118 1228.01 362.851 1232.61C365.064 1230.42 367.292 1228.29 370.438 1227.45C372.956 1228.3 375.291 1230.46 378.273 1228.6L378.265 1228.79Z" fill="#D3AA62"/>
<path d="M362.295 1197.26L362.034 1196.33C358.725 1195.73 355.464 1194.86 351.706 1196.58C355.448 1198.93 358.836 1198.51 362.295 1197.26Z" fill="#D3AA62"/>
<path d="M409.326 1216.65C412.484 1209.97 416.652 1211 421.754 1214.25C424.695 1216.16 429.972 1213.72 431.882 1210.25C432.768 1208.59 434.012 1207.77 435.686 1207.38C441.386 1205.99 446.809 1203.63 452.289 1201.69C453.127 1195.73 449.047 1190.66 442.809 1189.7C441.66 1189.56 440.544 1189.96 439.46 1189.61L437.625 1190.3C431.877 1191.95 427.877 1197.82 421.226 1197.37C419.034 1197.24 417.37 1198.31 418.176 1200.95C418.877 1203.42 416.475 1203.85 415.799 1205.38L415.243 1206.68C413.361 1208.07 410.262 1207.34 409.159 1210.19L406.785 1212.23C405.973 1214.36 406.396 1215.86 408.639 1216.61L409.423 1216.56L409.326 1216.65Z" fill="#D3AA62"/>
<path d="M439.292 1189.73C442.037 1190.51 444.871 1190.96 447.109 1193.21C448.65 1194.74 450.263 1195.88 449.297 1198.56C448.235 1201.33 450.622 1201.29 452.202 1201.86C457.282 1200.67 461.738 1199.23 464.827 1193.82C467.392 1189.39 470.572 1185.39 471.711 1180.28C470.116 1180.08 468.456 1179.65 466.903 1179.82C463.682 1180.19 462.013 1183.21 463.88 1185.9C465.642 1188.42 465.103 1190.22 463.115 1191.9C461.338 1193.46 459.391 1195.06 457.386 1192.11C457.158 1191.74 456.396 1191.22 456.243 1191.33C451.322 1195.05 447.776 1190.56 443.646 1189.45C442.318 1189.11 440.789 1189.58 439.349 1189.72L439.292 1189.73Z" fill="#D3AA62"/>
<path d="M474.326 1179.24C475.17 1180.05 475.821 1181.04 476.827 1181.55C479.002 1182.7 482.045 1184.09 483.565 1182.04C485.262 1179.76 486.414 1176.19 482.891 1173.76C480.504 1171.86 478.127 1171.08 475.684 1173.79C474.123 1175.47 471.592 1174.36 469.73 1175.63C470.861 1177.67 473.47 1177.3 474.326 1179.24Z" fill="#D3AA62"/>
<path d="M415.666 1205.38C417.83 1204.34 420.587 1203.86 419.747 1200.24C419.453 1199.2 420.423 1198.72 421.296 1198.76C428.178 1198.95 432.274 1193.43 437.523 1190.25C434.154 1191.6 430.735 1192.34 427.392 1194.44C424.776 1196.06 419.894 1197.06 415.825 1196.38C413.884 1196.04 411.456 1195.29 410.798 1197.74C410.14 1200.2 412.431 1201.12 414.452 1201.31C417.898 1201.75 415.824 1203.77 415.649 1205.32L415.666 1205.38Z" fill="#D3AA62"/>
<path d="M393.25 1224.1C394.846 1225.61 396.194 1224.51 397.68 1223.67C400.12 1222.3 402.657 1221.26 405.576 1221.36C408.738 1221.45 410.053 1219.79 409.456 1216.6C405.994 1216.1 402.319 1214.42 399.57 1218.4L398.608 1218.69C397.139 1220.02 395.128 1220.96 395.084 1223.41L393.266 1224.16L393.25 1224.1Z" fill="#D3AA62"/>
<path d="M399.539 1218.39C402.668 1216.6 406.495 1219.69 409.436 1216.58L406.796 1212.25C405.591 1213 404.533 1214.27 402.938 1214.07C399.561 1213.67 399.217 1215.73 399.522 1218.33L399.539 1218.39Z" fill="#D3AA62"/>
<path d="M480.883 1167.07C479.931 1165.66 478.843 1164.43 477.215 1165C475.797 1165.43 474.503 1166.97 474.912 1168.41C475.532 1170.61 477.629 1169.52 479.128 1169.37C480.385 1169.23 481.129 1168.38 480.939 1167.05L480.883 1167.07Z" fill="#D3AA62"/>
<path d="M389.879 1223.3C386.72 1223.65 384.056 1225.09 381.984 1227.55C386.003 1228.49 389.085 1225.92 392.42 1224.45C391.763 1223.65 390.922 1223.29 389.879 1223.3Z" fill="#D3AA62"/>
<path d="M409.107 1210.19C411.232 1209.22 413.633 1208.8 415.19 1206.69C412.716 1207.08 409.137 1205.3 409.107 1210.19Z" fill="#D3AA62"/>
<path d="M451.717 1188.39L452.341 1187.75C452.016 1187.48 451.731 1187.12 451.438 1186.96C451.365 1186.92 450.919 1187.31 450.854 1187.52C450.725 1187.94 451.303 1188.45 451.774 1188.37L451.717 1188.39Z" fill="#D3AA62"/>
<path d="M395.075 1223.35L398.639 1218.72C396.534 1219.56 394.811 1220.66 395.075 1223.35Z" fill="#D3AA62"/>
<path d="M572.732 1135.68C566.586 1137.01 562.094 1140.72 558.245 1145.61C559.106 1147.35 560.925 1146.6 562.148 1147.22C564.266 1146.44 566.589 1146.6 568.725 1146.32C571.871 1145.91 574.331 1141.77 578.421 1143.82C578.64 1143.94 578.91 1141.42 578.268 1140.24C576.977 1138.06 575.218 1136.41 572.789 1135.66L572.732 1135.68Z" fill="#D3AA62"/>
<path d="M378.308 1228.95C375.723 1228.3 373.234 1227.12 370.465 1227.79C372.722 1230.55 374.923 1233.32 378.308 1228.95Z" fill="#D3AA62"/>
<path d="M637.962 1119.34L636.972 1116.49C636.158 1116.24 635.532 1116.43 635.127 1117.19C635.438 1118.29 635.498 1119.6 637.068 1119.68L638.035 1119.38L637.962 1119.34Z" fill="#D3AA62"/>
<path d="M700.682 1110.65C704.906 1113.84 708.058 1110.43 711.497 1108.69C707.788 1108.83 704.21 1109.43 700.682 1110.65Z" fill="#D3AA62"/>
<path d="M641.402 1108.36L635.907 1110.5C636.647 1112.03 637.574 1113.57 639.541 1112.9C641.75 1112.21 641.552 1110.2 641.459 1108.34L641.402 1108.36Z" fill="#D3AA62"/>
<path d="M635.119 1117.17L636.957 1116.48C637.084 1115.18 636.321 1114.66 635.162 1114.71C634.246 1114.74 633.518 1115.21 633.626 1116.25C633.668 1117.05 634.486 1117.11 635.135 1117.23L635.119 1117.17Z" fill="#D3AA62"/>
<path d="M716.974 1106.67C718.73 1107.45 720.501 1107.4 722.238 1106.8C720.537 1105.57 718.751 1106 716.974 1106.67Z" fill="#D3AA62"/>
<path d="M129.431 1308.77C132.478 1309.33 135.305 1308.46 137.636 1306.5C138.927 1305.41 140.055 1304.19 141.891 1304.81C144.462 1305.64 144.708 1303.25 145.82 1301.98C139.071 1300.93 134.036 1304.42 129.374 1308.79L129.431 1308.77Z" fill="#D3AA62"/>
<path d="M97.2244 1320.97C100.29 1321.15 103.864 1324.43 106.191 1319.39C102.88 1317.91 100.068 1319.28 97.2244 1320.97Z" fill="#D3AA62"/>
<path d="M722.924 1073.16C721.034 1072.8 720.503 1074.41 719.524 1075.53C722.064 1076.88 723.352 1076.42 722.924 1073.16Z" fill="#D3AA62"/>
<path d="M728.174 1073.32L725.06 1073.41C726.13 1074.58 727.133 1074.65 728.174 1073.32Z" fill="#D3AA62"/>
<path d="M562.407 1133.17L559.62 1134.22C560.01 1134.73 560.36 1135.31 560.831 1135.67C562.065 1136.55 563.544 1138.29 564.765 1136.28C566.203 1133.94 563.552 1133.95 562.35 1133.19L562.407 1133.17Z" fill="#D3AA62"/>
<path d="M815.598 1042.8L814.312 1042.19C812.688 1043.45 812.025 1045.04 813.224 1046.88C814.423 1048.72 815.985 1049.43 818.235 1048.42C818.409 1045.97 816.496 1044.67 815.598 1042.8Z" fill="#D3AA62"/>
<path d="M822.553 1050.99C824.502 1049.82 826.508 1048.64 828.368 1047.37C829.29 1046.71 830.317 1045.76 829.399 1044.48C828.693 1043.5 827.3 1043.81 826.824 1044.52C825.322 1046.62 820.568 1046.58 822.553 1050.99Z" fill="#D3AA62"/>
<path d="M327.037 1198.67C327.037 1198.67 327.627 1197.92 327.489 1197.65C327.195 1196.61 326.295 1196.7 325.477 1197.07C324.967 1197.23 324.684 1197.76 325.074 1198.27C325.481 1198.83 326.13 1198.95 326.997 1198.74L327.037 1198.67Z" fill="#D3AA62"/>
<path d="M260.217 1227.49C255.891 1225.89 255.225 1232.21 251.086 1231.05C247.553 1230.08 244.964 1232.44 243.622 1236.16C248.819 1232.81 256.743 1235.61 260.217 1227.49Z" fill="#D3AA62"/>
<path d="M320.551 1264.83C320.068 1262.91 318.93 1262.38 317.292 1263.13C315.045 1264.14 313.888 1265.95 314.972 1268.26C315.78 1270.03 317.576 1270.92 319.449 1269.9C321.59 1268.73 321.391 1266.72 320.608 1264.82L320.551 1264.83Z" fill="#D3AA62"/>
<path d="M244.25 1289.64C244.022 1288.83 243.43 1288.69 242.855 1289.06C242.377 1289.33 241.851 1289.87 241.698 1290.42C241.481 1291.18 242.082 1291.56 242.819 1291.34C243.613 1291.09 244.139 1290.55 244.25 1289.64Z" fill="#D3AA62"/>
<path d="M253.936 1264.59C254.02 1265.76 253.998 1267.21 255.781 1266.53C256.235 1266.39 256.93 1265.36 256.791 1265.09C256.148 1263.46 254.95 1264.46 253.879 1264.61L253.936 1264.59Z" fill="#D3AA62"/>
<path d="M300.504 1273.12C300.164 1273.66 299.645 1274.01 299.686 1274.38C299.729 1275.18 300.427 1275.47 301.059 1275.09C301.384 1274.92 301.691 1274.26 301.649 1273.9C301.568 1273.61 301.015 1273.4 300.487 1273.06L300.504 1273.12Z" fill="#D3AA62"/>
<path d="M513.347 1184.92C512.154 1183.53 510.816 1182.93 510.145 1183.83C509.233 1185.18 510.82 1185.13 511.615 1185.33C512.004 1185.39 512.481 1185.12 513.347 1184.92Z" fill="#D3AA62"/>
<path d="M615.776 1158.62C615.33 1158.57 614.924 1158.45 614.51 1158.51C614.396 1158.55 614.357 1159.06 614.252 1159.35C614.658 1159.47 615.064 1159.6 615.437 1159.61C615.437 1159.61 615.59 1159.06 615.719 1158.64L615.776 1158.62Z" fill="#D3AA62"/>
<path d="M432.067 1206.32C433.182 1205.03 436.875 1206.78 436.311 1203.69C435.746 1200.6 432.686 1200.23 429.952 1200.58C428.172 1200.81 426.417 1201.36 424.751 1202C423.255 1202.58 421.347 1203.24 421.837 1205.41C422.278 1207.4 424.052 1208.23 425.93 1208.34C428.123 1208.48 429.998 1207.27 432.084 1206.38L432.067 1206.32Z" fill="#D3AA62"/>
<path d="M434.006 1196.58L433.307 1196.29C433.307 1196.29 433.21 1196.83 433.276 1197.06C433.292 1197.12 433.625 1197.2 433.625 1197.2L434.063 1196.56L434.006 1196.58Z" fill="#D3AA62"/>
<g style="mix-blend-mode:multiply">
<path d="M550.825 1471.07C557.707 1476.86 548.717 1487.95 541.835 1482.17C534.953 1476.38 543.944 1465.29 550.825 1471.07Z" fill="#BEE2C9"/>
</g>
<g style="mix-blend-mode:multiply">
<path d="M407.524 1496.62C422.278 1509.08 403.032 1532.91 388.22 1520.47C373.465 1508.01 392.712 1484.17 407.524 1496.62Z" fill="#BEE2C9"/>
</g>
<g style="mix-blend-mode:multiply">
<path d="M596.659 1413.96C615.931 1430.18 590.769 1461.32 571.481 1445.05C552.209 1428.83 577.371 1397.69 596.659 1413.96Z" fill="#BEE2C9"/>
</g>
<g style="mix-blend-mode:multiply">
<path d="M637.255 1209.65C645.672 1216.72 634.67 1230.32 626.236 1223.19C617.803 1216.06 628.822 1202.52 637.255 1209.65Z" fill="#BEE2C9"/>
</g>
<g style="mix-blend-mode:multiply">
<path d="M499.426 1362.71C518.698 1378.93 493.536 1410.07 474.247 1393.79C454.959 1377.52 480.137 1346.43 499.426 1362.71Z" fill="#BEE2C9"/>
</g>
<g style="mix-blend-mode:multiply">
<path d="M500.621 1247.52C503.453 1244.63 506.341 1241.72 509.173 1238.83C511.014 1236.37 513.278 1234.53 515.981 1233.38C518.383 1231.82 521.037 1230.93 523.944 1230.72C526.801 1230.34 529.594 1230.6 532.185 1231.68C535.075 1232.29 537.601 1233.59 539.835 1235.6C541.175 1237.07 542.443 1238.5 543.783 1239.97C545.929 1243.2 547.165 1246.71 547.525 1250.62C547.445 1252.54 547.365 1254.45 547.268 1256.3C546.597 1260.28 544.992 1263.8 542.485 1266.96C540.23 1270.37 537.975 1273.77 535.721 1277.18C533.798 1279.78 531.364 1281.67 528.507 1282.94C525.951 1284.61 523.183 1285.53 520.146 1285.72C517.118 1286.16 514.179 1285.81 511.459 1284.71C508.438 1284.07 505.766 1282.7 503.443 1280.59C502.086 1279.07 500.673 1277.56 499.316 1276.03C497.065 1272.64 495.707 1268.91 495.355 1264.81L495.587 1258.83C496.323 1254.64 497.993 1250.91 500.654 1247.63L500.621 1247.52Z" fill="#BEE2C9"/>
</g>
<g style="mix-blend-mode:multiply">
<path d="M439.769 1245.38C461.227 1263.44 433.208 1298.04 411.735 1279.93C390.277 1261.88 418.295 1227.27 439.769 1245.38Z" fill="#BEE2C9"/>
</g>
<g style="mix-blend-mode:multiply">
<path d="M395.153 1377.86C419.519 1398.35 387.696 1437.66 363.313 1417.12C338.931 1396.57 370.771 1357.32 395.153 1377.86Z" fill="#BEE2C9"/>
</g>
<g style="mix-blend-mode:multiply">
<path d="M329.282 1287.26C343.931 1299.56 324.822 1323.23 310.157 1310.86C295.508 1298.56 314.617 1274.89 329.282 1287.26Z" fill="#BEE2C9"/>
</g>
<g style="mix-blend-mode:multiply">
<path d="M400.701 1159.58C402.415 1161.06 400.167 1163.83 398.396 1162.37C396.625 1160.91 398.93 1158.12 400.701 1159.58Z" fill="#BEE2C9"/>
</g>
<g style="mix-blend-mode:multiply">
<path d="M505.186 1106.11C508.162 1108.77 511.121 1111.38 514.096 1114.04C515.527 1115.17 516.592 1116.54 517.252 1118.22C518.163 1119.7 518.692 1121.36 518.766 1123.16C518.954 1124.93 518.768 1126.68 518.119 1128.33C517.763 1130.14 516.911 1131.73 515.693 1133.11C514.816 1133.95 513.939 1134.79 513.062 1135.63C511.153 1136.98 509.041 1137.82 506.693 1138.05C505.572 1138.02 504.451 1137.99 503.329 1137.96C500.989 1137.55 498.876 1136.63 497.014 1135.07C493.901 1132.58 490.803 1130.14 487.69 1127.65C486.186 1126.48 485.104 1125.05 484.445 1123.37C483.518 1121.83 482.989 1120.17 482.898 1118.31C482.694 1116.49 482.88 1114.73 483.585 1113.06C483.999 1111.24 484.778 1109.61 486.036 1108.15C486.913 1107.31 487.847 1106.46 488.724 1105.62C490.673 1104.19 492.858 1103.39 495.247 1103.09C496.425 1103.1 497.546 1103.13 498.725 1103.14C501.122 1103.53 503.251 1104.51 505.113 1106.07L505.186 1106.11Z" fill="#BEE2C9"/>
</g>
<g style="mix-blend-mode:multiply">
<path d="M633.843 1118C649.231 1130.96 629.141 1155.75 613.752 1142.79C598.364 1129.83 618.455 1105.04 633.843 1118Z" fill="#BEE2C9"/>
</g>
<g style="mix-blend-mode:multiply">
<path d="M705.953 1008.87C709.01 1011.38 712.067 1013.9 715.14 1016.47C716.555 1017.54 717.563 1018.92 718.222 1020.61C719.117 1022.03 719.573 1023.65 719.704 1025.43C719.949 1027.18 719.674 1028.84 719.082 1030.47C718.709 1032.22 717.914 1033.79 716.753 1035.16C715.876 1036 715.039 1036.76 714.162 1037.6C712.253 1038.95 710.182 1039.71 707.907 1039.98C706.786 1039.95 705.721 1039.9 704.6 1039.87C702.276 1039.53 700.276 1038.57 698.431 1037.07C695.415 1034.48 692.398 1031.89 689.439 1029.29C688.024 1028.22 687.016 1026.83 686.373 1025.21C685.478 1023.79 685.022 1022.16 684.907 1020.44C684.679 1018.75 684.881 1017.05 685.546 1015.46C685.919 1013.71 686.674 1012.21 687.892 1010.83C688.712 1010.01 689.605 1009.23 690.425 1008.41C692.277 1007.08 694.349 1006.31 696.567 1006.06C697.688 1006.09 698.752 1006.13 699.858 1006.11C702.125 1006.47 704.181 1007.41 705.953 1008.87Z" fill="#BEE2C9"/>
</g>
<g style="mix-blend-mode:multiply">
<path d="M851.263 1076.83C870.12 1092.67 845.494 1123.08 826.62 1107.18C807.763 1091.34 832.389 1060.93 851.263 1076.83Z" fill="#BEE2C9"/>
</g>
<g style="mix-blend-mode:multiply">
<path d="M770.027 1216.61C786.715 1230.67 764.929 1257.56 748.24 1243.5C731.552 1229.43 753.338 1202.55 770.027 1216.61Z" fill="#BEE2C9"/>
</g>
<g style="mix-blend-mode:multiply">
<path d="M733.731 1281.21C736.649 1283.89 739.625 1286.55 742.543 1289.23C744.283 1290.58 745.576 1292.32 746.406 1294.39C747.528 1296.18 748.155 1298.19 748.23 1300.43C748.475 1302.62 748.257 1304.7 747.462 1306.71C747.016 1308.86 746.034 1310.87 744.524 1312.53C743.452 1313.55 742.381 1314.58 741.309 1315.6C738.937 1317.28 736.371 1318.27 733.495 1318.6C732.13 1318.58 730.748 1318.5 729.383 1318.49C726.523 1317.99 723.971 1316.83 721.711 1314.95L712.29 1307.62C710.478 1306.24 709.168 1304.44 708.338 1302.37C707.2 1300.52 706.556 1298.45 706.466 1296.15C706.204 1293.91 706.463 1291.75 707.298 1289.67C707.784 1287.44 708.766 1285.44 710.301 1283.64C711.429 1282.6 712.501 1281.57 713.63 1280.53C716.042 1278.77 718.722 1277.75 721.615 1277.48C723.053 1277.54 724.475 1277.54 725.856 1277.61C728.83 1278.08 731.455 1279.27 733.731 1281.21Z" fill="#BEE2C9"/>
</g>
<g style="mix-blend-mode:multiply">
<path d="M805.123 1345.48C819.049 1357.19 800.89 1379.62 786.964 1367.91C773.038 1356.2 791.198 1333.77 805.123 1345.48Z" fill="#BEE2C9"/>
</g>
<g style="mix-blend-mode:multiply">
<path d="M730.481 1419.58C747.982 1434.34 725.108 1462.63 707.534 1447.83C689.961 1433.04 712.907 1404.79 730.481 1419.58Z" fill="#BEE2C9"/>
</g>
<g style="mix-blend-mode:multiply">
<path d="M628.751 1562.7L621.087 1572.12C620.235 1573.27 619.173 1574.1 617.915 1574.68C616.763 1575.41 615.586 1575.84 614.182 1575.9C612.811 1576.07 611.545 1575.96 610.351 1575.45C609.036 1575.17 607.81 1574.55 606.803 1573.6C604.878 1571.81 603.335 1569.4 603.228 1566.6C603.137 1563.87 603.792 1561.15 605.585 1558.96L613.248 1549.54C614.1 1548.39 615.163 1547.56 616.42 1546.98C617.572 1546.25 618.749 1545.82 620.153 1545.76C621.525 1545.59 622.791 1545.7 623.984 1546.21C625.299 1546.49 626.525 1547.11 627.532 1548.06C629.457 1549.85 631 1552.26 631.108 1555.06C631.199 1557.79 630.543 1560.51 628.751 1562.7Z" fill="#BEE2C9"/>
</g>
<g style="mix-blend-mode:multiply">
<path d="M525.016 1599.28C538.057 1610.26 521.058 1631.32 507.944 1620.3C494.831 1609.28 511.903 1588.25 525.016 1599.28Z" fill="#BEE2C9"/>
</g>
<g style="mix-blend-mode:multiply">
<path d="M401.573 1619.2C415.751 1631.15 397.235 1654.06 382.984 1642.07C368.733 1630.08 387.323 1607.21 401.573 1619.2Z" fill="#BEE2C9"/>
</g>
<g style="mix-blend-mode:multiply">
<path d="M316.814 1609.89C331.317 1622.12 312.371 1645.48 297.868 1633.26C283.365 1621.03 302.312 1597.67 316.814 1609.89Z" fill="#BEE2C9"/>
</g>
<g style="mix-blend-mode:multiply">
<path d="M249.159 1527.34C245.642 1519.04 242.085 1510.81 238.569 1502.51C237.753 1500.49 237.539 1498.41 237.799 1496.25C237.683 1494.08 238.146 1491.98 239.13 1489.97C240.008 1487.81 241.319 1486.08 243.085 1484.65C244.542 1483 246.317 1481.82 248.467 1481.09C252.442 1479.79 256.938 1479.47 260.703 1481.39C261.909 1482.15 263.188 1482.95 264.394 1483.71C266.603 1485.61 268.25 1487.94 269.238 1490.79C272.754 1499.09 276.312 1507.32 279.828 1515.62C280.644 1517.64 280.857 1519.71 280.598 1521.88C280.714 1524.05 280.251 1526.14 279.267 1528.15C278.388 1530.32 277.078 1532.05 275.311 1533.48C273.854 1535.13 272.079 1536.31 269.929 1537.04C265.955 1538.33 261.459 1538.66 257.694 1536.74C256.488 1535.97 255.209 1535.17 254.003 1534.41C251.737 1532.53 250.147 1530.19 249.159 1527.34Z" fill="#BEE2C9"/>
</g>
<g style="mix-blend-mode:multiply">
<path d="M246.975 1428.5C257.683 1437.57 243.703 1454.86 232.937 1445.81C222.172 1436.77 236.21 1419.45 246.975 1428.5Z" fill="#BEE2C9"/>
</g>
<g style="mix-blend-mode:multiply">
<path d="M279.652 1330.08C289.946 1338.77 276.501 1355.33 266.206 1346.64C255.912 1337.95 269.357 1321.39 279.652 1330.08Z" fill="#BEE2C9"/>
</g>
<g style="mix-blend-mode:multiply">
<path d="M520.442 1086.95C534.059 1098.45 516.257 1120.39 502.64 1108.89C489.023 1097.4 506.825 1075.46 520.442 1086.95Z" fill="#BEE2C9"/>
</g>
<g style="mix-blend-mode:multiply">
<path d="M603.628 1098.13C614.645 1107.42 600.25 1125.22 589.217 1115.87C578.183 1106.53 592.594 1088.79 603.628 1098.13Z" fill="#BEE2C9"/>
</g>
<g style="mix-blend-mode:multiply">
<path d="M654.504 1168.97C668.682 1180.92 650.165 1203.84 635.915 1191.85C621.664 1179.86 640.253 1156.98 654.504 1168.97Z" fill="#BEE2C9"/>
</g>
<g style="mix-blend-mode:multiply">
<path d="M586.952 1253.39C601.601 1265.69 582.492 1289.36 567.827 1277C553.162 1264.63 572.287 1241.02 586.952 1253.39Z" fill="#BEE2C9"/>
</g>
<g style="mix-blend-mode:multiply">
<path d="M599.245 1237.97C609.686 1246.75 596.078 1263.61 585.622 1254.78C575.165 1245.95 588.789 1229.15 599.245 1237.97Z" fill="#BEE2C9"/>
</g>
<g style="mix-blend-mode:multiply">
<path d="M660.841 1237.81C675.019 1249.76 656.503 1272.68 642.252 1260.69C628.074 1248.74 646.591 1225.82 660.841 1237.81Z" fill="#BEE2C9"/>
</g>
<g style="mix-blend-mode:multiply">
<path d="M714.671 1285.7C727.402 1296.47 710.76 1317.04 698.028 1306.28C685.297 1295.51 701.939 1274.94 714.671 1285.7Z" fill="#BEE2C9"/>
</g>
<g style="mix-blend-mode:multiply">
<path d="M661.611 1332.81C676.366 1345.27 657.119 1369.11 642.307 1356.66C627.496 1344.22 646.8 1320.37 661.611 1332.81Z" fill="#BEE2C9"/>
</g>
<g style="mix-blend-mode:multiply">
<path d="M663.932 1291.55C675.526 1301.35 660.385 1320.01 648.791 1310.21C637.197 1300.42 652.338 1281.75 663.932 1291.55Z" fill="#BEE2C9"/>
</g>
<g style="mix-blend-mode:multiply">
<path d="M675.327 1296.5C690.391 1309.18 670.73 1333.52 655.65 1320.79C640.587 1308.1 660.248 1283.76 675.327 1296.5Z" fill="#BEE2C9"/>
</g>
<path d="M1453.02 800.671L1657.64 747.435C1695.82 737.509 1735.27 727.247 1769.94 706.731C1834.84 668.391 1878.97 594.199 1888 508.302C1896.29 429.655 1876.29 350.317 1856.89 282.106C1845.83 243.215 1832.35 203.137 1800.44 178.16C1750.09 138.716 1683.52 128.734 1619.17 119.085C1606.17 117.129 1593.33 115.196 1580.74 113.07C1501 99.4195 1418.37 103.016 1338.44 106.521L1338.75 114.25C1418.28 110.771 1500.52 107.16 1579.51 120.705C1592.12 122.854 1605.04 124.799 1618.07 126.76C1681.51 136.259 1747.06 146.097 1795.89 184.338C1826.02 207.953 1838.53 245.091 1849.67 284.323C1868.87 351.784 1888.65 430.247 1880.52 507.495C1871.78 590.919 1829.05 662.919 1766.21 700.046C1732.41 720.024 1693.46 730.151 1655.78 739.94L1451.16 793.176L1453 800.688L1453.02 800.671Z" fill="#D3AA62"/>
<path d="M1456.78 755.668C1539.28 739.814 1620.81 716.385 1699.14 686.037C1734.15 672.471 1773.53 655.298 1797.65 623.405C1819.31 594.751 1825.03 558.945 1829.04 524.693C1835 473.902 1839.31 419.439 1830.62 365.636C1824.05 324.966 1806.61 267.333 1760.84 223.858C1724.01 188.894 1671.08 165.24 1603.52 153.573C1510.85 137.562 1457.67 133.466 1370.81 164.919L1373.28 172.231C1458.49 141.348 1510.88 145.437 1602.25 161.203C1668.37 172.625 1720 195.623 1755.73 229.566C1799.94 271.544 1816.8 327.426 1823.19 366.896C1831.73 419.73 1827.45 473.517 1821.56 523.741C1817.69 556.902 1812.17 591.54 1791.7 618.611C1768.74 648.936 1730.51 665.571 1696.47 678.779C1618.55 708.98 1537.42 732.279 1455.35 748.05L1456.72 755.68L1456.78 755.668Z" fill="#D3AA62"/>
<path d="M1507.46 706.938C1585.26 692.956 1654.11 662.032 1705.04 617.643C1777.27 554.665 1812.16 462.667 1793.87 383.324C1785.18 345.549 1764.42 309.946 1735.41 283.132C1717.87 266.938 1696.63 252.881 1670.49 240.212C1581.95 197.239 1475.6 190.178 1378.79 220.621L1380.98 228.038C1476.08 198.033 1580.42 205.078 1667.32 247.224C1692.79 259.591 1713.43 273.214 1730.41 288.938C1758.3 314.708 1778.25 348.878 1786.59 385.12C1804.2 461.69 1770.31 550.655 1700.21 611.749C1639.35 664.834 1552.15 698.259 1454.57 705.992L1455.15 713.697C1472.94 712.29 1490.45 710.019 1507.48 706.961L1507.46 706.938Z" fill="#D3AA62"/>
</g>
<defs>
<clipPath id="clip0_120_4571">
<rect width="1920" height="1630" fill="white"/>
</clipPath>
</defs>
</svg>
