<svg width="1062" height="483" viewBox="0 0 1062 483" fill="none" xmlns="http://www.w3.org/2000/svg">
<path d="M138.157 275.035C138.327 267.605 138.557 260.495 138.817 253.685C139.087 246.885 139.387 241.615 139.747 237.905C147.347 236.495 155.037 235.075 162.817 233.665C170.597 232.255 177.847 230.925 184.567 229.685C191.287 228.455 197.257 227.385 202.467 226.505C204.057 226.235 205.507 225.985 206.837 225.745V236.715C206.837 237.685 206.787 238.355 206.707 238.705C206.617 239.065 206.527 239.855 206.437 241.095C206.347 242.335 206.307 245.255 206.307 249.845C206.127 254.085 206.037 257.275 206.037 259.395V264.565C206.037 265.895 206.077 266.995 206.167 267.885C206.257 268.775 206.297 270.005 206.297 271.595C206.297 273.185 206.387 275.445 206.567 278.355C206.737 281.275 206.917 285.295 207.097 290.425C207.277 292.895 208.517 294.405 210.797 294.935C213.087 295.465 214.857 294.495 216.107 292.015C216.807 290.595 217.207 289.015 217.297 287.245C217.387 285.475 217.337 283.355 217.167 280.875C216.987 279.465 216.547 278.315 215.837 277.425C215.127 276.545 214.777 275.215 214.777 273.445C214.597 269.905 214.467 267.305 214.377 265.625C214.287 263.945 214.197 262.795 214.117 262.175C214.027 261.555 213.987 261.155 213.987 260.985C213.987 260.815 213.937 260.365 213.857 259.655C213.767 258.955 213.727 257.715 213.727 255.945V247.725C213.727 243.305 213.817 240.565 213.997 239.505C214.167 238.445 214.307 237.695 214.397 237.255C214.487 236.815 214.527 236.025 214.527 234.865C214.527 233.705 214.437 230.935 214.257 226.515V224.335C216.057 223.975 217.347 223.325 218.107 222.405C218.907 221.435 219.037 220.505 218.507 219.625C218.147 218.565 217.177 218.215 215.587 218.565C215.057 218.605 214.507 218.655 213.957 218.705C213.917 217.915 213.837 217.325 213.717 216.975C213.717 216.445 213.347 215.915 212.617 215.385C212.057 214.855 211.327 214.765 210.417 215.115C209.317 215.115 208.487 215.645 207.937 216.705C207.417 217.335 207.087 218.275 206.937 219.525C204.177 219.905 201.187 220.385 197.957 220.955C190.967 222.195 183.857 223.475 176.607 224.805C169.357 226.135 162.457 227.415 155.917 228.655C149.377 229.895 144.157 230.775 140.267 231.305C139.737 216.805 139.557 203.055 139.737 190.065C139.907 177.065 140.177 164.255 140.537 151.605C140.887 138.965 141.237 126.145 141.597 113.145C141.947 100.145 142.127 86.4051 142.127 71.9051C142.127 69.9651 145.447 67.4851 152.077 64.4751C158.707 61.4751 167.147 58.2451 177.407 54.7951C187.657 51.3451 198.887 47.8951 211.087 44.4551C223.287 41.0051 234.957 37.7351 246.097 34.6451C257.237 31.5551 267.047 28.9451 275.537 26.8251C284.027 24.7051 289.677 23.2051 292.507 22.3151C296.397 21.2551 299.837 20.3251 302.847 19.5351C305.847 18.7351 308.767 18.0751 311.597 17.5451C314.427 17.0151 317.207 16.5751 319.947 16.2151C322.687 15.8651 325.737 15.5951 329.097 15.4151C329.977 15.4151 330.597 15.0151 330.957 14.2251C331.307 13.4251 331.657 12.8551 332.017 12.5051C332.547 11.2651 332.367 9.89509 331.487 8.39509C330.597 6.89509 329.317 5.52509 327.637 4.28509C325.957 3.05509 324.007 1.98509 321.807 1.10509C319.597 0.225093 317.517 -0.134907 315.577 0.045093C314.157 0.045093 313.017 0.355093 312.127 0.975093C311.237 1.59509 310.357 2.43509 309.477 3.49509C308.237 5.26509 307.527 6.32509 307.357 6.67509C307.177 7.03509 306.557 7.56509 305.497 8.26509C302.667 9.85509 299.217 11.0951 295.157 11.9751C291.087 12.8651 285.697 14.2751 278.977 16.2151C269.957 18.8651 261.207 21.2551 252.717 23.3751C244.227 25.4951 235.827 27.7051 227.517 30.0051C219.207 32.3051 210.807 34.6451 202.317 37.0351C193.827 39.4251 184.987 42.2051 175.797 45.3851C173.677 46.0951 171.327 46.9351 168.767 47.9051C166.207 48.8751 163.597 49.8551 160.947 50.8251C158.297 51.7951 155.687 52.7751 153.127 53.7451C150.557 54.7151 148.307 55.4651 146.367 55.9951C145.127 56.3551 144.157 56.0851 143.447 55.1951C142.737 54.3151 142.207 53.1651 141.857 51.7451C141.327 49.2751 141.497 46.7951 142.387 44.3151C143.267 41.8451 143.537 39.1051 143.187 36.0951C143.187 35.7451 143.097 35.0351 142.917 33.9751C142.737 32.9151 142.557 32.2051 142.387 31.8551C142.207 30.2651 141.587 29.3851 140.527 29.2051C139.467 29.0351 138.357 29.2051 137.207 29.7351C136.057 30.2651 135.037 31.0151 134.157 31.9851C133.267 32.9551 132.917 33.8851 133.097 34.7751C133.977 40.2551 134.507 45.0751 134.687 49.2251C134.857 53.3851 134.777 56.5151 134.417 58.6451C134.237 60.0651 133.087 61.1251 130.967 61.8251C129.017 62.7151 126.637 63.6351 123.807 64.6051C120.977 65.5751 117.047 67.0851 112.007 69.1151C106.967 71.1451 100.467 73.8851 92.517 77.3351C84.557 80.7851 74.657 85.2551 62.817 90.7251C56.627 93.5551 49.727 96.7851 42.127 100.405C34.527 104.035 27.357 108.055 20.647 112.475C19.757 113.005 18.477 113.805 16.797 114.865C15.117 115.925 13.307 117.165 11.357 118.575C9.40699 119.995 7.55699 121.495 5.78699 123.085C4.01699 124.675 2.60699 126.265 1.54699 127.855C0.126987 129.805 -0.313013 131.965 0.216987 134.355C0.746987 136.745 2.51699 138.465 5.51699 139.525C14.007 142.355 22.447 144.525 30.847 146.025C39.247 147.525 47.427 149.075 55.377 150.665C63.337 152.255 70.977 154.155 78.317 156.365C85.647 158.575 92.377 161.895 98.477 166.315C104.577 170.735 110.017 176.615 114.787 183.955C119.557 191.295 123.357 200.705 126.187 212.205C126.357 212.735 126.667 214.105 127.117 216.315C127.557 218.525 127.997 220.825 128.447 223.215C128.887 225.605 129.197 227.765 129.377 229.715C129.547 231.665 129.467 232.635 129.107 232.635C119.557 234.225 110.367 235.645 101.527 236.875C92.687 238.115 83.667 239.265 74.477 240.325C71.467 240.685 69.397 240.855 68.247 240.855C67.097 240.855 66.387 240.765 66.127 240.585C65.857 240.415 65.907 240.105 66.257 239.655C66.607 239.215 66.877 238.815 67.057 238.465C67.227 237.935 66.657 237.495 65.337 237.135C64.007 236.785 61.847 237.045 58.837 237.935C57.417 238.295 56.317 239.125 55.527 240.455C54.727 241.785 54.637 243.065 55.257 244.305C55.877 245.545 57.507 246.515 60.167 247.225C62.817 247.935 66.797 247.935 72.107 247.225L129.657 239.795C130.187 247.935 130.357 256.595 130.187 265.785C130.007 274.985 129.747 284.265 129.387 293.635C129.027 303.005 128.587 312.285 128.057 321.485C127.527 330.675 127.257 339.255 127.257 347.215C127.077 351.985 126.897 356.405 126.727 360.475C126.547 364.545 127.527 367.805 129.647 370.285C130.347 371.165 131.457 371.515 132.967 371.345C134.467 371.165 135.887 370.685 137.207 369.885C138.537 369.085 139.637 368.165 140.527 367.095C141.407 366.035 141.587 365.065 141.057 364.175C140.697 363.285 140.307 361.745 139.867 359.535C139.427 357.325 139.117 353.035 138.937 346.675C138.937 341.545 138.717 335.935 138.277 329.835C137.837 323.735 137.617 317.855 137.617 312.195C137.617 308.485 137.657 303.215 137.747 296.415C137.837 289.605 137.967 282.495 138.147 275.065L138.157 275.035ZM135.367 94.6851C135.277 101.225 135.187 108.255 135.097 115.765C135.007 123.285 134.827 131.015 134.567 138.975C134.307 146.935 134.037 154.665 133.767 162.185C133.497 169.705 133.237 176.735 132.967 183.265C132.697 189.805 132.477 195.465 132.307 200.235C132.127 203.945 131.817 206.115 131.377 206.735C130.937 207.355 129.917 205.635 128.327 201.565C125.847 195.195 123.377 189.625 120.897 184.855C118.417 180.085 115.497 175.795 112.147 171.995C108.787 168.195 104.677 164.795 99.817 161.785C94.947 158.785 88.897 155.865 81.647 153.035C75.987 150.915 70.247 149.185 64.407 147.865C58.567 146.545 52.777 145.345 47.037 144.285C41.287 143.225 35.767 142.165 30.457 141.105C25.157 140.045 20.117 138.715 15.337 137.125C11.097 135.715 9.40699 133.725 10.297 131.155C11.177 128.595 13.747 125.765 17.987 122.665C22.227 119.575 27.797 116.215 34.697 112.585C41.597 108.965 48.977 105.385 56.847 101.845C64.717 98.3051 72.717 94.9051 80.847 91.6351C88.977 88.3651 96.407 85.4451 103.127 82.8851C109.847 80.3251 115.457 78.2451 119.967 76.6551C124.477 75.0651 127.087 74.0951 127.787 73.7351C131.327 72.5051 133.397 71.9651 134.017 72.1451C134.637 72.3251 135.037 74.2651 135.207 77.9751C135.377 82.5751 135.427 88.1451 135.337 94.6851H135.367Z" fill="white"/>
<path d="M212.687 175.575C210.737 174.515 209.057 174.425 207.647 175.315C207.287 175.495 206.757 175.935 206.057 176.645C205.527 177.175 205.257 177.885 205.257 178.765C205.257 180.005 205.607 181.065 206.317 181.945L206.587 182.215C207.647 183.455 208.927 184.465 210.437 185.265C211.937 186.065 213.487 186.285 215.077 185.925C216.137 185.575 216.757 184.955 216.937 184.065C217.107 183.365 216.577 181.855 215.347 179.555C214.817 178.675 214.327 177.835 213.887 177.035C213.447 176.235 213.047 175.755 212.697 175.575H212.687Z" fill="white"/>
<path d="M314.527 283.125C312.047 282.325 309.797 280.605 307.767 277.955C305.737 275.305 303.917 271.985 302.327 268.005C300.737 264.025 299.367 260.005 298.217 255.935C297.067 251.865 296.047 248.115 295.167 244.665C294.277 241.215 293.487 238.615 292.777 236.845C292.247 235.255 291.587 233.705 290.787 232.205C289.987 230.705 289.067 229.415 288.007 228.355C286.947 227.295 285.657 226.585 284.157 226.235C282.657 225.885 280.837 226.065 278.717 226.765C274.477 228.355 270.847 231.765 267.847 236.975C264.837 242.195 262.317 247.895 260.287 254.085C258.257 260.275 256.657 266.375 255.517 272.385C254.367 278.395 253.527 283.085 252.997 286.445C252.287 289.445 251.667 290.905 251.137 290.825C250.607 290.735 250.167 288.745 249.807 284.855C249.447 280.085 249.277 276.015 249.277 272.655C249.277 269.295 249.497 265.625 249.937 261.645C250.377 257.665 251.037 253.075 251.927 247.855C252.807 242.645 254.047 235.785 255.637 227.305C255.987 225.535 256.337 224.165 256.697 223.195C257.047 222.225 257.397 221.475 257.757 220.945C258.107 220.415 258.457 219.975 258.817 219.615C259.167 219.265 259.437 218.645 259.617 217.755C259.967 216.525 259.657 215.505 258.687 214.705C257.717 213.905 256.567 213.515 255.237 213.515C253.907 213.515 252.627 213.875 251.387 214.575C250.147 215.285 249.357 216.435 248.997 218.025C246.517 231.285 244.667 242.295 243.427 251.045C242.187 259.795 241.347 267.185 240.907 273.195C240.467 279.205 240.467 284.295 240.907 288.445C241.347 292.595 242.097 296.625 243.157 300.515C243.687 302.285 244.617 303.565 245.937 304.365C247.267 305.165 248.677 305.645 250.177 305.825C251.677 305.995 253.047 305.825 254.287 305.295C255.527 304.765 256.147 303.965 256.147 302.905C256.317 299.895 256.897 295.165 257.867 288.715C258.837 282.265 260.207 275.495 261.977 268.425C263.747 261.355 265.827 254.675 268.207 248.405C270.597 242.135 273.287 237.575 276.297 234.745C278.237 232.805 279.477 232.225 280.007 233.025C280.537 233.825 281.067 234.925 281.597 236.335C282.837 239.165 284.027 242.795 285.177 247.205C286.327 251.625 287.647 256.225 289.157 260.995C290.657 265.765 292.377 270.325 294.327 274.655C296.267 278.985 298.617 282.475 301.357 285.135C304.097 287.785 307.277 289.285 310.907 289.645C314.527 289.995 318.727 288.585 323.507 285.405C326.867 283.285 330.307 280.675 333.847 277.585C337.387 274.495 340.787 271.215 344.057 267.775C344.707 267.095 345.337 266.405 345.957 265.725C345.987 268.335 346.187 270.835 346.567 273.215C347.457 278.695 349.177 282.985 351.737 286.075C354.297 289.165 357.787 289.925 362.217 288.325C363.987 287.625 365.887 285.455 367.917 281.825C369.947 278.205 371.937 274.135 373.887 269.625C375.827 265.115 377.637 260.655 379.327 256.235C381.007 251.815 382.287 248.545 383.177 246.425C384.587 243.245 385.297 241.915 385.297 242.445C385.297 242.975 385.737 245.015 386.627 248.545C387.327 252.255 388.347 256.415 389.677 261.015C391.007 265.615 392.597 269.905 394.447 273.875C396.307 277.855 398.517 281.165 401.077 283.825C403.637 286.475 406.597 287.715 409.957 287.535C413.487 287.365 416.857 286.475 420.037 284.885C423.217 283.295 426.667 280.955 430.377 277.855C434.087 274.765 438.337 270.825 443.107 266.055C445.737 263.425 448.647 260.485 451.817 257.265C451.027 263.365 450.467 268.685 450.137 273.215C449.697 279.225 449.697 284.315 450.137 288.465C450.577 292.615 451.327 296.645 452.387 300.535C452.917 302.305 453.847 303.585 455.167 304.385C456.497 305.185 457.907 305.665 459.407 305.845C460.907 306.015 462.277 305.845 463.517 305.315C464.747 304.785 465.377 303.985 465.377 302.925C465.547 299.915 466.127 295.185 467.097 288.735C468.067 282.285 469.437 275.515 471.207 268.445C472.977 261.375 475.057 254.695 477.437 248.425C479.827 242.155 482.517 237.595 485.527 234.765C487.467 232.825 488.707 232.245 489.237 233.045C489.767 233.845 490.297 234.945 490.827 236.355C492.057 239.185 493.257 242.815 494.407 247.225C495.557 251.645 496.877 256.245 498.387 261.015C499.887 265.785 501.607 270.345 503.557 274.675C505.497 279.005 507.847 282.495 510.587 285.155C513.327 287.805 516.507 289.305 520.137 289.665C523.757 290.015 527.957 288.605 532.737 285.425C536.097 283.305 539.537 280.695 543.077 277.605C546.617 274.515 550.017 271.235 553.287 267.795C555.937 264.995 558.407 262.205 560.707 259.405C560.767 260.475 560.857 261.545 560.967 262.625C561.767 269.875 563.797 276.285 567.067 281.855C570.337 287.425 574.757 291.625 580.327 294.455C585.897 297.285 592.477 297.635 600.087 295.515C605.927 293.925 611.707 291.185 617.457 287.295C623.197 283.405 628.687 279.075 633.897 274.295C639.107 269.525 643.847 264.745 648.087 259.975C651.197 256.475 653.927 253.405 656.277 250.765C656.127 254.575 656.047 257.475 656.047 259.445V264.615C656.047 265.945 656.087 267.045 656.177 267.935C656.267 268.825 656.307 270.055 656.307 271.645C656.307 273.235 656.397 275.495 656.577 278.405C656.747 281.325 656.927 285.345 657.107 290.475C657.287 292.945 658.527 294.455 660.807 294.985C663.097 295.515 664.867 294.545 666.117 292.065C666.817 290.645 667.217 289.065 667.307 287.295C667.397 285.525 667.347 283.405 667.177 280.925C666.997 279.515 666.557 278.365 665.847 277.475C665.137 276.595 664.787 275.265 664.787 273.495C664.607 269.955 664.477 267.355 664.387 265.675C664.297 263.995 664.207 262.845 664.117 262.225C664.027 261.605 663.987 261.205 663.987 261.035C663.987 260.865 663.937 260.415 663.857 259.705C663.767 259.005 663.727 257.765 663.727 255.995V247.775C663.727 243.355 663.817 240.615 663.997 239.555C664.167 238.495 664.307 237.745 664.397 237.305C664.487 236.865 664.527 236.075 664.527 234.915C664.527 233.755 664.437 230.985 664.267 226.565V224.445C664.267 222.505 664.177 221.085 663.997 220.205C663.997 218.615 663.907 217.555 663.727 217.025C663.727 216.495 663.357 215.965 662.627 215.435C662.067 214.905 661.337 214.815 660.427 215.165C659.327 215.165 658.497 215.695 657.947 216.755C657.207 217.645 656.847 219.145 656.847 221.265V236.785C656.847 237.755 656.797 238.425 656.717 238.775C656.627 239.135 656.537 239.925 656.447 241.165C656.397 241.895 656.357 243.205 656.337 245.085C655.987 245.365 655.627 245.735 655.257 246.205C651.367 250.445 647.117 255.005 642.527 259.865C637.927 264.735 633.107 269.325 628.077 273.655C623.037 277.985 617.997 281.705 612.957 284.795C607.917 287.895 603.097 289.785 598.507 290.495C593.207 291.195 588.917 290.185 585.647 287.445C582.377 284.705 579.817 281.035 577.957 276.435C576.097 271.835 574.947 266.585 574.507 260.655C574.067 254.735 574.197 248.985 574.907 243.415C575.607 237.845 576.717 232.765 578.217 228.165C579.717 223.565 581.537 220.205 583.657 218.085C585.957 215.785 588.337 214.285 590.817 213.575C593.287 212.875 595.237 212.775 596.647 213.305C597.177 213.665 597.577 214.195 597.837 214.895C598.107 215.605 598.407 216.135 598.767 216.485C599.647 217.375 600.707 217.945 601.947 218.205C603.177 218.475 604.247 218.425 605.127 218.075C606.007 217.725 606.717 217.105 607.247 216.215C607.777 215.335 607.867 214.355 607.517 213.295C606.987 212.065 606.017 210.995 604.597 210.115C603.177 209.235 601.587 208.615 599.827 208.255C598.057 207.905 596.157 207.775 594.127 207.855C592.097 207.945 590.187 208.345 588.427 209.045C581.357 211.695 575.647 215.895 571.317 221.645C566.987 227.395 563.987 233.845 562.297 241.005C561.317 245.195 560.767 249.405 560.637 253.635C560.087 254.405 559.497 255.195 558.857 255.995C556.467 259.005 553.817 261.965 550.897 264.875C547.977 267.795 544.927 270.625 541.747 273.365C538.567 276.105 535.377 278.625 532.197 280.925C529.017 283.225 526.187 283.975 523.707 283.175C521.227 282.375 518.977 280.655 516.947 278.005C514.907 275.355 513.097 272.035 511.507 268.055C509.917 264.075 508.547 260.055 507.397 255.985C506.247 251.915 505.227 248.165 504.347 244.715C503.457 241.265 502.667 238.665 501.957 236.895C501.427 235.305 500.767 233.755 499.967 232.255C499.167 230.755 498.247 229.465 497.177 228.405C496.117 227.345 494.827 226.635 493.327 226.285C491.827 225.935 490.007 226.115 487.887 226.815C483.647 228.405 480.017 231.815 477.017 237.025C474.007 242.245 471.487 247.945 469.457 254.135C467.427 260.325 465.827 266.425 464.687 272.435C463.537 278.445 462.697 283.135 462.167 286.495C461.457 289.495 460.837 290.955 460.307 290.875C459.777 290.785 459.337 288.795 458.977 284.905C458.617 280.135 458.447 276.065 458.447 272.705C458.447 269.345 458.667 265.675 459.107 261.695C459.547 257.715 460.207 253.125 461.097 247.905C461.977 242.695 463.217 235.835 464.807 227.355C465.157 225.585 465.507 224.215 465.867 223.245C466.217 222.275 466.567 221.525 466.927 220.995C467.277 220.465 467.627 220.025 467.987 219.665C468.337 219.315 468.607 218.695 468.787 217.805C469.137 216.575 468.827 215.555 467.857 214.755C466.887 213.955 465.737 213.565 464.407 213.565C463.077 213.565 461.797 213.925 460.557 214.625C459.317 215.335 458.527 216.485 458.167 218.075C455.757 230.955 453.947 241.695 452.707 250.325C447.767 255.265 443.437 259.595 439.737 263.295C435.227 267.805 431.247 271.515 427.797 274.435C424.347 277.355 421.257 279.475 418.517 280.805C415.777 282.135 413.077 282.795 410.427 282.795C406.717 282.625 403.667 280.495 401.277 276.425C398.887 272.355 397.117 267.455 395.977 261.705C394.827 255.965 394.257 249.995 394.257 243.805C394.257 237.615 394.697 232.405 395.587 228.155C396.117 226.035 396.117 224.355 395.587 223.115C395.057 221.885 394.257 220.905 393.197 220.195C392.137 219.495 390.897 219.005 389.487 218.735C388.067 218.465 386.567 218.165 384.977 217.805C382.327 217.455 379.447 217.635 376.357 218.335C373.257 219.045 370.167 220.195 367.077 221.785C363.977 223.375 361.107 225.455 358.457 228.015C355.807 230.585 353.687 233.455 352.087 236.635C349.437 242.115 347.627 248.215 346.647 254.935C346.387 256.715 346.207 258.445 346.077 260.135C344.667 261.725 343.177 263.305 341.607 264.875C338.687 267.795 335.637 270.625 332.457 273.365C329.277 276.105 326.087 278.625 322.907 280.925C319.727 283.225 316.897 283.975 314.417 283.175L314.527 283.125ZM354.047 267.075C354.487 262.275 355.377 257.445 356.707 252.575C357.827 250.965 358.797 249.425 359.617 247.975C360.267 246.995 360.007 246.285 358.857 245.835C360.507 241.325 362.477 237.175 364.787 233.385C367.707 228.615 370.757 225.605 373.937 224.365C375.707 223.665 377.337 223.215 378.847 223.035C380.347 222.865 381.537 223.035 382.427 223.565C383.487 223.925 383.797 225.515 383.357 228.335C382.917 231.165 382.117 234.615 380.967 238.675C379.817 242.745 378.357 247.125 376.587 251.805C374.817 256.495 373.007 260.915 371.147 265.065C369.287 269.225 367.607 272.845 366.107 275.935C364.607 279.035 363.497 280.935 362.797 281.635C361.907 282.525 360.677 283.095 359.087 283.355C357.497 283.625 356.257 282.695 355.377 280.575C353.957 277.395 353.517 272.885 354.047 267.045V267.075Z" fill="white"/>
<path d="M694.707 270.785C696.037 276.445 698.197 280.995 701.207 284.445C704.207 287.895 707.837 288.825 712.077 287.225C713.847 286.525 715.617 284.355 717.377 280.725C719.147 277.105 720.827 272.995 722.417 268.395C724.007 263.795 725.507 259.295 726.927 254.865C728.337 250.445 729.487 247.175 730.377 245.055C731.787 241.875 732.767 240.595 733.297 241.205C733.827 241.825 733.997 243.985 733.827 247.705V255.135C733.827 258.495 733.917 262.125 734.097 266.005C734.267 269.895 734.577 273.745 735.027 277.545C735.467 281.345 736.127 284.395 737.017 286.695C741.077 297.835 746.477 303.045 753.197 302.345C759.917 301.635 766.097 295.625 771.767 284.305C776.367 275.115 781.137 263.225 786.087 248.635C791.037 234.045 795.807 218.395 800.407 201.695C805.007 184.985 809.297 168.015 813.267 150.775C817.247 133.535 820.647 117.585 823.477 102.905C822.057 114.225 820.737 127.135 819.497 141.625C818.257 156.125 817.197 171.425 816.317 187.505C815.427 203.595 814.727 220.045 814.197 236.835C813.667 253.635 813.397 270.035 813.397 286.035C813.397 302.035 813.657 317.245 814.197 331.655C814.727 346.065 815.607 358.925 816.847 370.245C817.017 371.835 817.327 373.645 817.777 375.685C818.217 377.715 818.797 379.705 819.497 381.655C820.197 383.595 821.047 385.405 822.017 387.095C822.987 388.775 824.177 389.965 825.597 390.675C826.657 391.205 827.757 391.375 828.917 391.205C830.067 391.025 831.037 390.455 831.837 389.485C832.637 388.515 833.117 387.275 833.297 385.775C833.467 384.275 832.937 382.545 831.707 380.605C830.117 378.125 828.697 375.475 827.467 372.645C826.227 369.815 825.517 367.695 825.347 366.275C823.577 355.135 822.427 341.295 821.897 324.765C821.367 308.235 821.277 290.285 821.627 270.925C821.977 251.565 822.687 231.405 823.747 210.455C824.807 189.505 826.137 169.125 827.727 149.325C829.317 129.525 831.087 110.915 833.027 93.4952C834.967 76.0852 837.007 61.0952 839.127 48.5352C839.297 47.6552 839.167 46.6752 838.727 45.6152C838.287 44.5552 837.757 43.6252 837.137 42.8352C836.517 42.0352 835.767 41.5052 834.887 41.2452C833.997 40.9752 833.207 41.2052 832.497 41.9052C831.787 42.6152 831.347 43.7652 831.167 45.3552C830.987 46.9452 830.727 48.9852 830.367 51.4552C830.007 52.5152 829.217 55.9252 827.977 61.6652C826.737 67.4152 825.147 74.7952 823.207 83.8152C821.257 92.8352 819.007 103.085 816.447 114.585C813.887 126.085 811.047 138.105 807.957 150.655C804.857 163.215 801.677 175.895 798.407 188.715C795.137 201.535 791.777 213.735 788.327 225.315C784.877 236.895 781.427 247.555 777.987 257.275C774.537 267.005 771.227 275.045 768.037 281.415C765.917 285.655 763.707 289.235 761.407 292.155C759.107 295.075 756.937 296.835 754.907 297.455C752.877 298.075 750.927 297.365 749.077 295.335C747.217 293.305 745.667 289.545 744.437 284.065C743.547 280.525 742.887 276.195 742.447 271.065C742.007 265.935 741.737 260.765 741.647 255.545C741.557 250.335 741.647 245.465 741.917 240.955C742.187 236.445 742.577 232.955 743.107 230.475C743.987 226.405 743.197 223.805 740.717 222.655C738.237 221.505 735.417 220.755 732.227 220.405C729.577 220.055 726.747 220.005 723.737 220.275C720.727 220.545 717.767 221.245 714.857 222.395C711.937 223.545 709.107 225.135 706.367 227.165C703.627 229.195 701.367 231.805 699.607 234.985C696.427 239.755 694.477 245.505 693.777 252.225C693.077 258.945 693.377 265.135 694.707 270.795V270.785ZM702.797 259.245C702.967 253.855 703.947 248.635 705.717 243.595C707.487 238.555 710.137 234.225 713.677 230.595C717.207 226.975 721.987 224.805 727.997 224.095C729.767 223.925 730.867 224.455 731.307 225.685C731.747 226.925 731.787 228.425 731.437 230.195C731.077 231.965 730.507 233.775 729.717 235.635C728.917 237.495 728.257 239.045 727.727 240.275C726.487 243.105 725.247 246.465 724.017 250.355C722.777 254.245 721.497 258.175 720.167 262.155C718.837 266.135 717.517 269.895 716.187 273.425C714.857 276.965 713.487 279.615 712.077 281.385C710.307 283.685 708.667 283.945 707.167 282.185C705.667 280.415 704.517 277.505 703.717 273.435C702.917 269.365 702.607 264.645 702.787 259.245H702.797Z" fill="white"/>
<path d="M859.677 299.835C861.707 309.115 864.757 316.055 868.827 320.655C873.067 325.425 877.317 328.215 881.557 329.005C885.797 329.805 889.867 329.315 893.757 327.545C897.647 325.775 901.267 323.125 904.627 319.585C907.987 316.045 910.897 312.335 913.377 308.445C916.377 303.495 919.297 298.145 922.127 292.395C924.957 286.655 927.567 280.995 929.947 275.425C932.277 269.995 934.337 264.875 936.167 260.035C936.337 260.925 936.507 261.815 936.707 262.695C937.767 267.205 939.397 271.185 941.617 274.635C943.827 278.085 946.567 280.785 949.837 282.725C953.107 284.675 956.867 285.375 961.107 284.845C963.407 284.495 965.747 283.125 968.137 280.735C970.527 278.345 972.427 275.655 973.837 272.645C974.187 271.945 975.167 269.425 976.757 265.085C978.347 260.755 980.207 255.845 982.327 250.365C984.447 244.885 986.607 239.405 988.827 233.925C991.037 228.445 992.937 224.115 994.527 220.925C996.997 216.155 999.167 214.735 1001.03 216.685C1002.89 218.635 1004.56 222.695 1006.07 228.885C1007.57 235.075 1008.85 242.585 1009.92 251.425C1010.98 260.265 1011.86 269.155 1012.57 278.075C1013.27 287.005 1013.85 295.185 1014.29 302.605C1014.73 310.035 1015.13 315.425 1015.48 318.785L1008.85 323.025C991.877 333.805 977.067 344.685 964.427 355.645C951.787 366.605 940.687 379.335 931.137 393.835C925.657 401.965 921.857 410.325 919.737 418.895C917.617 427.465 916.907 435.605 917.617 443.295C918.327 450.985 920.267 457.835 923.447 463.845C926.627 469.855 930.877 474.495 936.177 477.765C941.477 481.035 947.667 482.495 954.747 482.145C961.817 481.785 969.597 479.045 978.087 473.925C978.437 473.745 978.787 473.565 979.147 473.395C979.497 473.215 979.847 473.035 980.207 472.865C988.697 467.035 995.947 458.015 1001.96 445.815C1007.97 433.615 1012.92 420.085 1016.81 405.235C1020.7 390.385 1023.48 375.175 1025.16 359.615C1026.84 344.055 1027.41 329.915 1026.88 317.175C1032.01 313.995 1037.31 310.765 1042.79 307.495C1048.27 304.225 1053.66 301.085 1058.97 298.075C1060.74 297.015 1061.44 295.685 1061.09 294.095C1060.73 292.505 1059.32 292.415 1056.85 293.825C1051.72 296.655 1046.59 299.565 1041.47 302.575C1036.34 305.575 1031.39 308.585 1026.62 311.595C1026.44 309.295 1026.26 305.055 1026.09 298.865C1025.91 292.675 1025.51 285.695 1024.9 277.915C1024.28 270.135 1023.44 262.095 1022.38 253.785C1021.32 245.475 1019.86 237.875 1018 230.975C1016.14 224.075 1013.8 218.465 1010.97 214.135C1008.14 209.805 1004.78 207.725 1000.89 207.905C998.767 208.085 996.647 209.545 994.517 212.285C992.397 215.025 990.317 218.515 988.287 222.765C986.247 227.005 984.217 231.745 982.187 236.955C980.157 242.175 978.207 247.215 976.357 252.075C974.497 256.945 972.817 261.355 971.317 265.335C969.817 269.315 968.527 272.185 967.467 273.955C964.987 278.195 962.467 280.365 959.907 280.455C957.337 280.545 954.997 279.355 952.877 276.875C950.757 274.405 948.987 270.955 947.577 266.535C946.157 262.115 945.367 257.515 945.187 252.745C945.007 248.855 945.227 245.805 945.847 243.595C946.467 241.385 947.177 239.665 947.967 238.425C948.767 237.195 949.517 236.215 950.217 235.505C950.917 234.795 951.447 234.005 951.807 233.115C952.157 231.885 951.977 230.505 951.277 229.005C950.567 227.505 949.687 226.265 948.627 225.295C947.567 224.325 946.417 223.665 945.177 223.305C943.937 222.955 942.967 223.305 942.257 224.365C939.957 227.375 938.187 231.045 936.957 235.375C935.717 239.705 935.097 244.215 935.097 248.905C933.707 252.005 932.157 255.795 930.457 260.305C928.427 265.705 926.077 271.445 923.427 277.545C920.777 283.645 917.987 289.695 915.077 295.715C912.157 301.725 909.017 306.945 905.657 311.365C902.297 315.785 898.847 319.145 895.317 321.445C891.777 323.745 888.247 324.185 884.707 322.775C880.467 321.185 876.967 317.775 874.227 312.565C871.487 307.345 869.357 300.845 867.857 293.075C866.357 285.295 865.377 276.545 864.937 266.815C864.497 257.095 864.447 246.925 864.807 236.315C865.157 227.655 865.777 217.885 866.667 207.005C867.547 196.135 868.607 184.995 869.847 173.585C871.077 162.185 872.367 150.775 873.697 139.375C875.027 127.975 876.307 117.405 877.547 107.685C878.777 97.9652 879.887 89.4352 880.857 82.0952C881.827 74.7652 882.487 69.4052 882.847 66.0452C883.017 64.2752 883.547 61.8452 884.437 58.7552C885.317 55.6652 886.207 52.6152 887.087 49.6052C887.617 47.4852 888.107 45.6752 888.547 44.1652C888.987 42.6652 889.347 41.2952 889.607 40.0552C889.867 38.8152 890.047 37.5852 890.137 36.3452C890.227 35.1052 890.177 33.6052 890.007 31.8352C890.007 30.2452 889.387 28.9652 888.147 27.9852C886.907 27.0152 885.537 26.4352 884.037 26.2652C882.537 26.0952 881.157 26.3952 879.927 27.1952C878.687 27.9952 877.977 29.2752 877.807 31.0452C877.097 37.4152 876.037 45.9852 874.627 56.7752C873.207 67.5652 871.577 79.6252 869.717 92.9752C867.857 106.325 866.007 120.555 864.147 135.675C862.287 150.795 860.657 166.045 859.237 181.425C857.817 196.805 856.757 211.835 856.057 226.515C855.357 241.195 855.257 254.765 855.787 267.225C856.317 279.695 857.597 290.565 859.637 299.845L859.677 299.835ZM1014.97 343.725C1014.61 351.505 1013.95 359.945 1012.98 369.055C1012.01 378.155 1010.59 387.625 1008.74 397.435C1006.88 407.245 1004.5 416.615 1001.58 425.545C998.657 434.475 995.207 442.695 991.237 450.215C987.257 457.725 982.527 463.785 977.047 468.385C970.857 473.685 964.757 476.785 958.747 477.665C952.737 478.545 947.247 477.755 942.307 475.275C937.357 472.795 933.157 468.905 929.707 463.605C926.257 458.305 924.007 452.065 922.947 444.905C921.887 437.745 922.287 430.005 924.137 421.695C925.997 413.385 929.667 404.895 935.147 396.235C944.167 382.265 954.907 369.885 967.367 359.105C979.837 348.315 994.457 337.625 1011.26 327.015L1015.5 324.365C1015.5 329.495 1015.32 335.945 1014.97 343.725Z" fill="white"/>
<path d="M186.197 406.995V408.065H187.587C188.537 408.065 189.427 408.295 190.257 408.765C190.857 409.115 191.257 409.535 191.447 410.015C191.697 410.655 191.827 411.975 191.827 413.965V439.405C191.827 441.765 191.597 443.255 191.127 443.875C190.387 444.825 189.207 445.295 187.587 445.295H186.197V446.365H203.097V445.295H201.677C200.747 445.295 199.857 445.065 199.007 444.595C198.387 444.245 197.977 443.825 197.787 443.345C197.537 442.705 197.407 441.385 197.407 439.395V427.025H204.577C205.897 427.025 206.887 427.205 207.557 427.565C208.227 427.925 208.747 428.465 209.127 429.175C209.507 429.895 209.707 431.015 209.727 432.545H210.797V419.215H209.727C209.477 421.365 208.967 422.805 208.207 423.525C207.437 424.255 206.237 424.615 204.587 424.615H197.417V409.135H206.097C208.147 409.135 209.667 409.325 210.637 409.715C211.617 410.105 212.437 410.725 213.107 411.585C213.777 412.445 214.357 413.795 214.867 415.635H215.887L215.507 406.985H186.207L186.197 406.995Z" fill="white"/>
<path d="M307.707 438.855L293.997 406.095H292.977L279.127 438.505C277.927 441.355 276.837 443.235 275.847 444.165C275.367 444.625 274.297 445.005 272.657 445.295V446.365H285.057V445.295C283.157 445.165 281.927 444.865 281.357 444.405C280.787 443.955 280.497 443.425 280.497 442.825C280.497 442.075 280.827 440.925 281.487 439.395L284.157 433.175H299.407L301.787 438.835C302.557 440.675 302.947 442.025 302.947 442.875C302.947 443.515 302.667 444.055 302.117 444.505C301.567 444.955 300.507 445.215 298.937 445.285V446.355H314.477V445.285C312.867 445.185 311.617 444.745 310.717 443.965C309.817 443.185 308.817 441.475 307.707 438.835V438.855ZM285.057 431.045L291.907 415.135L298.587 431.045H285.057Z" fill="white"/>
<path d="M374.907 408.075H376.297C377.227 408.075 378.117 408.305 378.967 408.775C379.567 409.125 379.967 409.545 380.157 410.025C380.407 410.665 380.537 411.985 380.537 413.975V439.415C380.537 441.775 380.307 443.265 379.837 443.885C379.097 444.835 377.917 445.305 376.297 445.305H374.907V446.375H391.777V445.305H390.357C389.427 445.305 388.547 445.075 387.717 444.605C387.097 444.255 386.687 443.835 386.497 443.355C386.247 442.715 386.117 441.395 386.117 439.405V413.965C386.117 411.605 386.357 410.115 386.847 409.495C387.587 408.545 388.757 408.075 390.357 408.075H391.777V407.005H374.907V408.075Z" fill="white"/>
<path d="M453.787 406.995L453.327 416.225H454.427C454.567 414.445 454.987 413.035 455.707 411.985C456.427 410.935 457.287 410.235 458.287 409.865C459.057 409.595 460.367 409.455 462.207 409.455H466.937V439.545C466.937 441.755 466.727 443.165 466.297 443.785C465.597 444.795 464.417 445.295 462.757 445.295H461.367V446.365H478.067V445.295H476.697C475.167 445.295 474.037 444.885 473.297 444.075C472.777 443.475 472.517 441.965 472.517 439.545V409.455H478.067C479.697 409.455 481.007 409.725 482.007 410.255C483.007 410.785 483.807 411.615 484.407 412.735C484.777 413.435 485.067 414.595 485.277 416.215H486.377L485.937 406.985H453.787V406.995Z" fill="white"/>
<path d="M582.567 410.145C582.787 409.515 583.207 409.045 583.827 408.735C584.657 408.295 585.537 408.065 586.467 408.065H587.857V406.995H571.017V408.065H572.407C573.337 408.065 574.217 408.295 575.047 408.765C575.667 409.115 576.077 409.535 576.267 410.015C576.517 410.655 576.647 411.975 576.647 413.995V425.265H558.347V413.995C558.347 412.055 558.467 410.775 558.697 410.145C558.927 409.515 559.347 409.045 559.947 408.735C560.777 408.295 561.657 408.065 562.587 408.065H564.007V406.995H547.137V408.065H548.527C549.457 408.065 550.347 408.295 551.197 408.765C551.797 409.115 552.197 409.535 552.387 410.015C552.637 410.655 552.767 411.975 552.767 413.995V439.405C552.767 441.765 552.537 443.255 552.067 443.875C551.327 444.825 550.147 445.295 548.527 445.295H547.137V446.365H564.007V445.295H562.587C561.657 445.295 560.777 445.065 559.947 444.595C559.327 444.245 558.917 443.825 558.727 443.345C558.477 442.705 558.347 441.385 558.347 439.395V427.405H576.647V439.395C576.647 441.755 576.407 443.245 575.917 443.865C575.177 444.815 574.007 445.285 572.407 445.285H571.017V446.355H587.857V445.285H586.467C585.537 445.285 584.647 445.055 583.797 444.585C583.197 444.235 582.797 443.815 582.607 443.335C582.357 442.695 582.227 441.375 582.227 439.385V413.975C582.227 412.035 582.337 410.755 582.557 410.125L582.567 410.145Z" fill="white"/>
<path d="M668.227 409.145C670.277 409.145 671.797 409.335 672.767 409.725C673.747 410.115 674.567 410.735 675.237 411.595C675.907 412.455 676.487 413.805 676.997 415.645H678.017L677.637 406.995H648.337V408.065H649.727C650.677 408.065 651.567 408.295 652.397 408.765C652.997 409.115 653.397 409.535 653.587 410.015C653.837 410.655 653.967 411.975 653.967 413.965V439.405C653.967 441.765 653.737 443.255 653.267 443.875C652.527 444.825 651.347 445.295 649.727 445.295H648.337V446.365H665.237V445.295H663.817C662.887 445.295 661.997 445.065 661.147 444.595C660.527 444.245 660.117 443.825 659.927 443.345C659.677 442.705 659.547 441.385 659.547 439.395V427.025H666.717C668.037 427.025 669.027 427.205 669.697 427.565C670.367 427.925 670.887 428.465 671.267 429.175C671.647 429.895 671.847 431.015 671.867 432.545H672.937V419.215H671.867C671.617 421.365 671.107 422.805 670.347 423.525C669.587 424.255 668.377 424.615 666.727 424.615H659.557V409.135H668.237L668.227 409.145Z" fill="white"/>
<path d="M745.707 439.055C746.637 441.575 748.217 443.575 750.437 445.065C752.657 446.555 755.927 447.305 760.227 447.305C764.177 447.305 767.297 446.525 769.597 444.965C771.887 443.405 773.427 441.535 774.217 439.365C775.007 437.195 775.397 434.125 775.397 430.175V414.205C775.397 412.015 775.597 410.625 776.007 410.025C776.837 408.725 778.027 408.075 779.577 408.075H781.057V407.005H767.117V408.075H768.597C770.087 408.075 771.207 408.505 771.967 409.355C772.507 409.975 772.777 411.515 772.777 413.975V429.915C772.777 434.095 772.407 437.065 771.657 438.815C770.907 440.565 769.527 442.005 767.487 443.125C765.457 444.245 763.147 444.805 760.577 444.805C758.567 444.805 756.867 444.445 755.477 443.735C754.097 443.015 753.037 442.105 752.297 441.005C751.557 439.905 751.057 438.365 750.777 436.385C750.497 434.415 750.357 432.655 750.357 431.125V413.965C750.357 411.755 750.597 410.305 751.087 409.605C751.787 408.575 752.947 408.065 754.567 408.065H756.077V406.995H739.057V408.065H740.537C742.027 408.065 743.107 408.445 743.777 409.195C744.447 409.945 744.777 411.535 744.777 413.955V429.345C744.777 434.085 745.087 437.325 745.707 439.045V439.055Z" fill="white"/>
<path d="M875.027 435.685L874.067 435.485C873.057 437.925 872.057 439.715 871.047 440.845C870.037 441.975 868.927 442.765 867.707 443.215C866.487 443.665 864.367 443.885 861.347 443.885H858.467C855.927 443.885 854.417 443.785 853.937 443.595C853.457 443.405 853.097 443.105 852.867 442.695C852.557 442.095 852.407 440.995 852.407 439.385V414.645C852.407 412.305 852.557 410.825 852.867 410.205C853.177 409.585 853.757 409.075 854.597 408.665C855.437 408.255 856.907 408.065 858.997 408.085V407.015H841.167V408.085H842.647C844.137 408.085 845.257 408.515 846.017 409.365C846.557 409.985 846.827 411.525 846.827 413.985V439.395C846.827 441.645 846.627 443.075 846.217 443.695C845.497 444.775 844.307 445.325 842.647 445.325H841.167V446.395H871.657L875.027 435.705V435.685Z" fill="white"/>
<path d="M781.047 331.725H169.677V335.455H781.047V331.725Z" fill="#BEE2C9"/>
</svg>
