<svg width="35" height="38" viewBox="0 0 35 38" fill="none" xmlns="http://www.w3.org/2000/svg">
<path d="M14.7066 0.183185C14.8861 0.0637313 15.0969 0 15.3125 0C15.5281 0 15.7389 0.0637313 15.9184 0.183185C20.0481 2.96721 24.7557 4.77797 29.6866 5.47912C29.9471 5.5165 30.1854 5.64656 30.3578 5.84546C30.5302 6.04435 30.625 6.29874 30.625 6.56194V16.6244C29.9259 16.2667 29.1932 15.9787 28.4375 15.7647V7.496C24.1042 6.76272 19.9481 5.2183 16.1875 2.94381L15.3125 2.39912L14.4375 2.94381C10.677 5.21907 6.52099 6.76423 2.1875 7.49819V16.4057C2.1875 23.4976 6.12062 28.7498 14.1706 32.2563C14.5972 33.2079 15.1419 34.0938 15.7894 34.8944L15.7063 34.9272C15.4529 35.025 15.1721 35.025 14.9187 34.9272C5.04875 31.1276 0 24.9151 0 16.4057V6.56194C3.99252e-05 6.29841 0.0952219 6.04376 0.268041 5.84482C0.44086 5.64588 0.679697 5.51602 0.940625 5.47912C5.87075 4.77765 10.5775 2.9669 14.7066 0.183185ZM35 27.3432C35 29.9539 33.9629 32.4577 32.1168 34.3038C30.2708 36.1498 27.767 37.1869 25.1562 37.1869C22.5455 37.1869 20.0417 36.1498 18.1957 34.3038C16.3496 32.4577 15.3125 29.9539 15.3125 27.3432C15.3125 24.7325 16.3496 22.2287 18.1957 20.3826C20.0417 18.5365 22.5455 17.4994 25.1562 17.4994C27.767 17.4994 30.2708 18.5365 32.1168 20.3826C33.9629 22.2287 35 24.7325 35 27.3432ZM26.25 22.9682C26.25 22.6781 26.1348 22.3999 25.9296 22.1948C25.7245 21.9897 25.4463 21.8744 25.1562 21.8744C24.8662 21.8744 24.588 21.9897 24.3829 22.1948C24.1777 22.3999 24.0625 22.6781 24.0625 22.9682V26.2494H20.7812C20.4912 26.2494 20.213 26.3647 20.0079 26.5698C19.8027 26.7749 19.6875 27.0531 19.6875 27.3432C19.6875 27.6333 19.8027 27.9115 20.0079 28.1166C20.213 28.3217 20.4912 28.4369 20.7812 28.4369H24.0625V31.7182C24.0625 32.0083 24.1777 32.2865 24.3829 32.4916C24.588 32.6967 24.8662 32.8119 25.1562 32.8119C25.4463 32.8119 25.7245 32.6967 25.9296 32.4916C26.1348 32.2865 26.25 32.0083 26.25 31.7182V28.4369H29.5312C29.8213 28.4369 30.0995 28.3217 30.3046 28.1166C30.5098 27.9115 30.625 27.6333 30.625 27.3432C30.625 27.0531 30.5098 26.7749 30.3046 26.5698C30.0995 26.3647 29.8213 26.2494 29.5312 26.2494H26.25V22.9682Z" fill="#BFA265"/>
</svg>
